<?xml version="1.0" standalone="no"?>
<!DOCTYPE svg PUBLIC "-//W3C//DTD SVG 1.1//EN" "http://www.w3.org/Graphics/SVG/1.1/DTD/svg11.dtd" >
<!--
2013-9-30: Created.
-->
<svg>
<metadata>
Created by iconfont
</metadata>
<defs>

<font id="iconfont" horiz-adv-x="1024" >
  <font-face
    font-family="iconfont"
    font-weight="500"
    font-stretch="normal"
    units-per-em="1024"
    ascent="896"
    descent="-128"
  />
    <missing-glyph />
    
    <glyph glyph-name="x" unicode="x" horiz-adv-x="1001"
d="M281 543q-27 -1 -53 -1h-83q-18 0 -36.5 -6t-32.5 -18.5t-23 -32t-9 -45.5v-76h912v41q0 16 -0.5 30t-0.5 18q0 13 -5 29t-17 29.5t-31.5 22.5t-49.5 9h-133v-97h-438v97zM955 310v-52q0 -23 0.5 -52t0.5 -58t-10.5 -47.5t-26 -30t-33 -16t-31.5 -4.5q-14 -1 -29.5 -0.5
t-29.5 0.5h-32l-45 128h-439l-44 -128h-29h-34q-20 0 -45 1q-25 0 -41 9.5t-25.5 23t-13.5 29.5t-4 30v167h911zM163 247q-12 0 -21 -8.5t-9 -21.5t9 -21.5t21 -8.5q13 0 22 8.5t9 21.5t-9 21.5t-22 8.5zM316 123q-8 -26 -14 -48q-5 -19 -10.5 -37t-7.5 -25t-3 -15t1 -14.5
t9.5 -10.5t21.5 -4h37h67h81h80h64h36q23 0 34 12t2 38q-5 13 -9.5 30.5t-9.5 34.5q-5 19 -11 39h-368zM336 498v228q0 11 2.5 23t10 21.5t20.5 15.5t34 6h188q31 0 51.5 -14.5t20.5 -52.5v-227h-327z" />
    

    
    <glyph glyph-name="gouwuche" unicode="&#58953;" d="M347.136 112.64q19.456 0 36.864-7.168t30.72-19.968 20.48-30.208 7.168-36.864-7.168-36.864-20.48-30.208-30.72-20.48-36.864-7.68q-20.48 0-37.376 7.68t-30.208 20.48-20.48 30.208-7.168 36.864 7.168 36.864 20.48 30.208 30.208 19.968 37.376 7.168zM773.12 110.592q19.456 0 37.376-7.168t30.72-19.968 20.48-30.208 7.68-36.864-7.68-36.864-20.48-30.208-30.72-20.48-37.376-7.68-36.864 7.68-30.208 20.48-20.48 30.208-7.68 36.864 7.68 36.864 20.48 30.208 30.208 19.968 36.864 7.168zM945.152 692.224q28.672 0 44.544-7.68t22.528-18.944 6.144-24.064-3.584-22.016-12.8-37.888-22.016-62.976-24.064-68.096-17.92-53.248q-13.312-40.96-33.792-56.832t-50.176-15.872l-34.816 0-66.56 0-87.04 0-95.232 0-253.952 0 15.36-92.16 516.096 0q49.152 0 49.152-41.984 0-20.48-9.728-35.328t-38.4-14.848l-49.152 0-95.232 0-117.76 0-119.808 0-98.304 0-56.32 0q-20.48 0-34.304 9.216t-23.04 24.064-14.848 32.256-8.704 32.768q-1.024 6.144-5.632 29.696t-11.264 58.88-14.848 78.848-16.384 87.552q-19.456 103.424-44.032 230.4l-76.8 0q-15.36 0-25.6 7.68t-16.896 18.432-9.216 23.04-2.56 22.528q0 20.48 13.824 33.792t37.376 13.312l22.528 0 20.48 0 25.6 0 34.816 0q20.48 0 32.768-6.144t19.456-15.36 10.24-19.456 5.12-17.408q2.048-8.192 4.096-23.04t4.096-30.208q3.072-18.432 6.144-38.912l700.416 0z"  horiz-adv-x="1024" />

    
    <glyph glyph-name="gouwuchekong" unicode="&#58955;" d="M332.8 105.472q19.456 0 36.864-7.168t30.208-19.968 20.48-30.208 7.68-36.864-7.68-36.864-20.48-30.208-30.208-20.48-36.864-7.68q-20.48 0-37.888 7.68t-30.208 20.48-20.48 30.208-7.68 36.864 7.68 36.864 20.48 30.208 30.208 19.968 37.888 7.168zM758.784 103.424q19.456 0 37.376-7.168t30.72-19.968 20.48-30.208 7.68-36.864-7.68-36.864-20.48-30.208-30.72-20.48-37.376-7.68-36.864 7.68-30.208 20.48-20.48 30.208-7.68 36.864 7.68 36.864 20.48 30.208 30.208 19.968 36.864 7.168zM930.816 685.056q28.672 0 44.544-7.68t22.528-18.944 6.144-24.064-3.584-22.016-13.312-37.888-22.016-62.976-23.552-68.096-18.944-53.248q-13.312-40.96-33.28-56.832t-49.664-15.872l-35.84 0-65.536 0-86.016 0-96.256 0-253.952 0 14.336-92.16 517.12 0q49.152 0 49.152-41.984 0-20.48-9.728-35.84t-38.4-14.336l-49.152 0-94.208 0-118.784 0-119.808 0-99.328 0-55.296 0q-20.48 0-34.304 9.216t-23.04 24.064-14.848 32.256-8.704 32.768q-1.024 6.144-5.632 29.696t-11.264 58.88-14.848 78.848-16.384 87.552q-19.456 103.424-44.032 230.4l-76.8 0q-15.36 0-25.6 7.68t-16.896 18.432-9.216 23.04-2.56 22.528q0 20.48 13.824 33.792t37.376 12.288l103.424 0q20.48 0 32.768-6.144t19.456-15.36 10.24-18.944 5.12-16.896q2.048-8.192 4.096-23.04t4.096-30.208q3.072-18.432 6.144-38.912l700.416 0zM892.928 593.92l-641.024 2.048 35.84-185.344 535.552-1.024z"  horiz-adv-x="1028" />

    
    <glyph glyph-name="huidaodingbu" unicode="&#58888;" d="M511.1276 583.4719 97.9466 184.1119 332.4426 184.1119 330.3946-142.9169 690.8426-142.9169 690.8426 185.1359 931.4826 188.2079ZM66.5078 746.3217l889.2385 0 0-131.1058-889.2385 0 0 131.1058Z"  horiz-adv-x="1024" />

    
    <glyph glyph-name="shanchu" unicode="&#58958;" d="M947.58912 637.36704c13.318144-13.344768 13.318144-35.16928 0-48.46592L681.049088 322.237184c-13.318144-13.290496-13.318144-35.1488 0-48.493568l266.402816-266.753024c13.324288-13.324288 13.324288-35.1488 0-48.46592l-97.055744-96.877568c-13.318144-13.290496-35.141632-13.290496-48.459776 0L535.629824 128.406272c-13.318144 13.318144-35.141632 13.318144-48.459776 0L220.63616-138.15424c-13.318144-13.297664-35.141632-13.297664-48.459776 0l-96.932864 97.007616c-13.318144 13.297664-13.318144 35.175424 0 48.473088l266.60864 266.58816c13.318144 13.318144 13.318144 35.12832 0 48.514048L75.457536 589.161216c-13.324288 13.344768-13.324288 35.175424 0.027648 48.473088l96.994304 96.864256c13.310976 13.344768 35.141632 13.344768 48.459776-0.048128l266.307584-266.656768c13.310976-13.344768 35.141632-13.344768 48.452608-0.048128L802.204672 734.307072c13.318144 13.324288 35.134464 13.324288 48.459776 0L947.58912 637.36704z"  horiz-adv-x="1024" />

    
    <glyph glyph-name="jiantou" unicode="&#58930;" d="M754.570858 179.173121l0 69.734224-69.737081 0 0 69.734224-69.738105 0 0 69.734224-69.737081 0 0 69.734224-69.738105 0 0-69.734224-69.740152 0 0-69.734224-69.737081 0 0-69.734224-69.737081 0 0-69.734224-69.742198 0 0-69.738317 139.47928 0 0 69.738317 69.737081 0 0 69.734224 69.740152 0 0 69.734224 69.738105 0 0-69.734224 69.737081 0 0-69.734224 69.738105 0 0-69.738317 139.475186 0 0 69.738317L754.570858 179.173121z"  horiz-adv-x="1024" />

    
    <glyph glyph-name="star" unicode="&#58945;" d="M514.859 800c-8.918 0-26.797-7.148-50.095-53.127-56.026-99.909-144.524-262.969-144.524-262.969s-161.805-31.385-266.177-51.096c-51.204-8.417-67.931-53.973-41.945-86.035 73.435-88.277 203.366-234.037 203.366-234.037s-21.207-160.057-33.155-269.313c-3.883-41.96 18.263-66.028 49.156-66.028 10.070 0 21.079 2.58 32.429 7.91 87.602 43.398 220.861 109.764 251.029 124.738 29.656-15.143 161.592-82.566 248.213-126.091 11.222-5.372 22.146-7.952 32.088-7.952 30.552 0 52.442 24.025 48.559 66.070-11.777 109.426-32.771 269.736-32.771 269.736s128.437 145.887 201.019 234.29c25.687 32.147 9.174 77.744-41.433 86.204-103.177 19.753-263.147 51.181-263.147 51.181s-87.474 163.272-142.86 263.307c-19.586 36.926-34.563 48.77-44.036 52.027-0.896 0.465-2.816 1.184-5.718 1.184v0z"  horiz-adv-x="1024" />

    
    <glyph glyph-name="dianhua" unicode="&#58892;" d="M746.607784 241.501678c-76.380598 0-142.425803-43.739177-174.847214-107.438964-99.44899 50.447972-178.638563 134.981251-221.751476 238.479463 72.426543 28.878724 123.665531 99.504248 123.665531 182.237531 0 108.393709-87.888699 196.281385-196.280362 196.281385-94.51563 0-173.376723-66.808592-192.054107-155.759483l-2.699482 0c-0.518816-9.216919-0.655939-18.515702-0.901533-27.814486-0.24457-4.226255-0.627287-8.425903-0.627287-12.707416 0-2.01796 0.246617-3.980661 0.300852-5.998621 2.318812-359.962282 274.459932-655.720286 624.293529-695.476755 13.196557-2.836605 26.885324-4.364401 40.902572-4.364401 16.579607 0 32.586163 2.290159 47.937802 6.16235 1.091868 0.217964 2.128477 0.491187 3.189645 0.818645 8.591679 2.344395 17.044188 5.016247 25.142633 8.398274l-5.262864 5.28947c0.845251 1.14508 1.771343 2.127454 2.508123 3.327792 11.262508 18.433838 5.398964 42.538839-13.033851 53.774741l-3.272533 1.581008c-13.743002 8.345062-30.593785 7.197936-42.919509-1.526773l-1.691525 1.691525c-3.981684-0.381693-7.852852-1.201361-11.941983-1.201361-10.608615 0-20.726044 1.855254-30.487362 4.527107-64.028269 6.872524-114.802676 21.705348-150.087297 35.176151 0.025583-0.054235 0.025583-0.107447 0.054235-0.162706-0.982374 0.381693-1.909489 0.87288-2.89084 1.254573-15.297404 5.944386-27.513634 11.507078-36.430724 15.925714C382.296451 50.402315 266.677177 169.89378 206.629569 318.454304c-10.115382 21.378913-44.284599 102.653985-45.156456 225.799676l0.1361 0c-0.190335 2.808976-0.845251 5.480828-0.845251 8.344039 0 64.926732 52.65729 117.582999 117.582999 117.582999 64.954361 0 117.609605-52.65729 117.609605-117.582999 0-58.600653-42.974767-106.785072-99.04069-115.728768l0.027629-0.545422c-20.042475-1.690502-35.831067-18.297738-35.831067-38.776142l0.353041-3.654226c0-11.834536 5.372358-22.306029 13.662161-29.464055l-4.117784-5.562692c0.518816 0 0.981351-0.10847 1.50119-0.10847 50.202379-133.125997 150.741189-241.4931 278.385335-302.029848-0.025583-0.435928-0.025583-0.87288-0.054235-1.254573l0.081864 0.10847 8.835226 3.981684c3.13541-5.072529 7.336082-9.598612 12.762675-12.871145l3.298116-1.636267c18.435884-11.234879 42.48665-5.39794 53.747111 13.034874 3.51915 5.780657 5.182023 12.106736 5.481851 18.432815 13.988596 49.084928 58.626235 85.297688 112.211664 85.297688 64.789609 0 117.308753-52.520167 117.308753-117.256564 0-12.979616-2.616594-25.196869-6.487761-36.866652l2.125407-2.072195c-0.518816-0.708128-1.254573-1.089821-1.718131-1.854231-10.553357-17.342993-5.071506-39.922245 12.243859-50.447972l3.107781-1.526773c12.763698-7.744381 28.360931-6.708795 39.923268 1.254573l3.925403-3.872191c15.980973 28.415167 25.196869 61.137429 25.196869 96.04138C942.888146 153.641631 855.028099 241.501678 746.607784 241.501678z"  horiz-adv-x="1024" />

    
    <glyph glyph-name="buzhichi" unicode="&#58952;" d="M805.833168 411.410416c-141.219325 0-255.679194-115.371634-255.679194-257.787204 0-81.053014 37.170574-153.260569 95.285157-200.493314-75.130118-55.79577-131.817188-90.90029-131.817188-90.90029S2.165319 178.310473 2.165319 432.887566c0 153.403832 94.378507 306.805618 273.949302 306.805618 164.425863 0 237.507322-156.900469 237.507322-156.900469s63.946404 156.900469 237.397828 156.900469c173.575244 0 271.00525-150.33596 271.00525-306.805618 0-35.033911-10.024308-70.993914-26.238594-107.098203C949.05101 378.233805 881.340886 411.410416 805.833168 411.410416L805.833168 411.410416zM805.833168 374.592882c121.082706 0 219.24233-98.891288 219.24233-220.969671 0-121.939213-98.159624-220.829478-219.24233-220.829478-121.077589 0-219.132836 98.890264-219.132836 220.829478C586.700332 275.701594 684.755578 374.592882 805.833168 374.592882L805.833168 374.592882zM696.224794 116.877309l219.23926 0 0 73.705676L696.224794 190.582985 696.224794 116.877309 696.224794 116.877309z"  horiz-adv-x="1026" />

    
    <glyph glyph-name="jiahao" unicode="&#59006;" d="M409.6-212l204.8 0L614.4 197.6l409.6 0L1024 402.4 614.4 402.4 614.4 812 409.6 812l0-409.6L0 402.4l0-204.8 409.6 0L409.6-212z"  horiz-adv-x="1024" />

    
    <glyph glyph-name="arrowright" unicode="&#58889;" d="M755.80526 299.217171 374.30136 674.467647c-9.404184 20.161179-30.133298 34.178427-54.217832 34.178427-32.927947 0-59.609633-26.185382-59.609633-58.474786 0-23.128767 13.691837-43.1211 33.561373-52.606125l303.305911-298.349015L294.389332 1.251895c-20.060895-9.41544-33.915437-29.510104-33.915437-52.775994 0-32.28838 26.682709-58.474786 59.609633-58.474786 23.930015 0 44.549635 13.83817 54.038754 33.789571L755.80526 299.217171z"  horiz-adv-x="1024" />

    
    <glyph glyph-name="wode" unicode="&#58880;" d="M871.812879-8.032562c0-15.286148-12.392238-27.678386-27.678386-27.678386s-27.678386 12.392238-27.678386 27.678386c0 3.273557 0 8.120958 0 14.983249 0 69.394487-141.16816 167.460989-303.301817 167.460989-128.897695 0-305.612443-82.659605-305.612443-164.698063 0-8.05956 0-14.471596 0-17.745153 0-15.286148-12.392238-27.678386-27.678386-27.678386-15.285125 0-27.678386 12.392238-27.678386 27.678386 0 3.273557 0 16.968463 0 34.828226 0 41.467437 61.594847 148.141992 229.826386 187.776687-60.754712 41.537022-100.662631 111.331621-100.662631 190.483332 0 127.381156 103.264898 230.655264 230.649124 230.655264 127.386272 0 230.649124-103.274108 230.649124-230.655264 0-77.837786-38.671765-146.525168-97.730858-188.292434 170.040744-38.058804 226.894613-150.176324 226.894613-189.966563C871.812879 8.762963 871.812879-4.759005 871.812879-8.032562zM687.293375 405.060801c0 96.807836-78.483492 175.293375-175.293375 175.293375s-175.293375-78.485539-175.293375-175.293375c0-96.821139 78.483492-175.293375 175.293375-175.293375S687.293375 308.239662 687.293375 405.060801z"  horiz-adv-x="1024" />

    
    <glyph glyph-name="iconjian" unicode="&#59010;" d="M903.053 229.25h-782.007c-32.391 0-58.649 26.256-58.649 58.647s26.256 58.661 58.649 58.661h782.009c32.406 0 58.649-26.27 58.649-58.661-0.001-32.393-26.245-58.647-58.649-58.647z"  horiz-adv-x="1024" />

    
    <glyph glyph-name="star-outline" unicode="&#58932;" d="M749.548 168.381l0.028 0.166 0.245 0.423 0.103-0.315zM905.989 356.806c7.458 7.824 8.544 20.069 1.969 29.131-3.601 4.966-8.837 8.016-14.433 9.026l-0.028 0.086-249.451 36.443-0.384 0.52 0.209-0.638-0.398 0.167-0.199 0.223-111.841 225.876-0.060-0.001c-5.156 9.499-16.475 14.293-27.119 10.818-5.834-1.903-10.342-5.951-13.023-10.965h-0.092l-111.148-225.951-1.536-0.536-248.056-36.1c-10.63-1.955-18.698-11.229-18.698-22.425 0-6.135 2.448-11.677 6.384-15.78l-0.029-0.086 180.471-175.916 0.001-0.346-42.858-247.768 0.048-0.036c-1.441-10.712 4.871-21.26 15.514-24.735 5.831-1.903 11.861-1.297 16.983 1.171l0.073-0.053 223.308 116.995 0.614-0.196-0.487 0.355 0.008 0.002 0.725-0.175 222.736-117.258c9.745-4.675 21.728-1.923 28.315 7.129 3.609 4.96 4.89 10.882 4.124 16.516l0.072 0.053-42.423 248.5 180.709 175.953zM724.868 180.809l0.025 0.148 0.219 0.379 0.092-0.282-0.336-0.245zM674.79 197.718l38.431-224.062-201.221 105.788-201.22-105.788 38.428 224.062-162.79 158.682 224.97 32.691 100.611 203.858 100.608-203.858 224.973-32.691-162.792-158.682z"  horiz-adv-x="1024" />

    
    <glyph glyph-name="xingxing" unicode="&#58969;" d="M484.932016 624.82604c14.722306 31.228235 38.818097 31.228235 53.538357 0l63.772442-135.237077c14.721283-31.225165 54.809303-61.039191 89.064478-66.246797l137.750317-20.945031c34.254152-5.206582 42.479487-29.66974 18.286482-54.360072l-101.8292-103.877859c-24.211425-24.692379-39.442314-72.752977-33.865295-106.795305l24.530696-149.630902c5.578042-34.048467-14.669094-48.249911-45.000913-31.556717l-124.33375 68.417229c-30.331819 16.685008-79.960123 16.685008-110.291942 0l-124.340913-68.417229c-30.324656-16.693194-50.582025-2.492774-44.99682 31.556717l24.51637 149.630902c5.585205 34.043351-9.655917 82.10395-33.858132 106.795305l-101.81078 103.875812c-24.202215 24.690332-15.97688 49.154513 18.283412 54.361095l137.747247 20.945031c34.260292 5.206582 74.340125 35.021631 89.062432 66.246797L484.932016 624.82604z"  horiz-adv-x="1024" />

    
    <glyph glyph-name="xingming" unicode="&#58959;" d="M511.997662 812C229.217233 812 0 582.77926 0 299.997662 0 17.219571 229.217233-212 511.997662-212c282.781598 0 512.003507 229.22074 512.003507 511.998831C1024.001169 582.77926 794.77926 812 511.997662 812zM818.194967-21.10331C777.985457 105.894638 659.247063 197.910464 518.956214 197.910464c-143.960074 0-265.220987-96.894878-302.267412-229.052416C125.639668 50.11401 68.310228 168.357953 68.310228 299.997662c0 245.051357 198.637246 443.690941 443.687434 443.690941s443.69211-198.640753 443.69211-443.690941C955.689772 173.68353 902.907411 59.699114 818.194967-21.10331zM518.956214 578.670523c-94.793168 0-171.646997-76.837464-171.646997-171.644659 0-94.776803 76.853829-171.646997 171.646997-171.646997 94.774466 0 171.611929 76.870193 171.611929 171.646997C690.568143 501.83306 613.730679 578.670523 518.956214 578.670523z"  horiz-adv-x="1025" />

    
    <glyph glyph-name="tuangou" unicode="&#59285;" d="M694.71081 356.908104l-92.90597 0 0-154.843624c0 0-10.323113-47.313585-49.033763-49.895387l-92.906993 0 0 45.594431 64.518433 0c0 0 28.388561-1.724271 28.388561 17.203824L552.771077 325.939789 394.485051 182.278855l-30.969339 0 0.860601 32.68747-16.34527 0 0-78.280878 346.678744 0L694.709787 356.908104zM300.717458 513.468836 741.163795 513.468836l0-439.58369-46.454008 0 0 14.625092-346.678744 0.861624 0-15.486716-47.313585 0 220.22368-221.078141c0 0 424.959621-12.486382 440.444291 456.56648 0 0 11.613502 421.308465-447.75786 441.954691 0 0-402.594241 27.088962-450.337615-441.954691L300.717458 513.468836zM300.717458 513.468836l0-439.58369 220.22368-221.078141c0 0-429.262624-33.132608-457.651184 456.56648L300.717458 513.468836zM348.031043 467.018921 552.771077 467.018921 552.771077 405.081267 364.376313 405.081267 364.376313 356.04648 520.941138 356.04648 364.376313 214.966325 348.031043 214.966325ZM601.80484 467.018921l92.90597 0 0-62.798255-92.90597 0 0 62.798255Z"  horiz-adv-x="1024" />

    
    <glyph glyph-name="icon1" unicode="&#59017;" d="M613.52579 706.097018c-168.205956 0-304.575834-136.37704-304.575834-304.575834 0-51.429323 12.865006-99.813287 35.393091-142.320403L132.567783 47.476683l0.176009-0.179079c-16.533558-16.256242-26.843368-38.811957-26.843368-63.822584 0-49.471738 40.105417-89.572038 89.577155-89.572038 25.010627 0 47.566342 10.30981 63.824631 26.839275l-0.049119 0.050142 211.697493 211.67498c42.534745-22.604834 91.01797-35.518958 142.575206-35.518958 168.195723 0 304.573787 136.376017 304.573787 304.572764C918.098553 569.721001 781.721513 706.097018 613.52579 706.097018L613.52579 706.097018zM227.601206-47.529111c-8.178263-8.450463-19.48068-13.780865-32.123628-13.780865-24.736381 0-44.786019 20.050662-44.786019 44.790112 0 12.637832 5.326309 23.941272 13.780865 32.121582l-0.226151 0.197498 204.737988 204.733894c17.892509-24.140817 39.207977-45.454238 63.301721-63.402005L227.601206-47.529111 227.601206-47.529111zM613.52579 147.714641c-140.16839 0-253.813706 113.644293-253.813706 253.806543 0 140.16839 113.645316 253.812683 253.813706 253.812683 140.167367 0 253.81166-113.644293 253.81166-253.812683C867.337449 261.358935 753.692133 147.714641 613.52579 147.714641L613.52579 147.714641zM613.52579 579.189653c-98.130971 0-177.670515-79.537498-177.670515-177.668469 0-7.013741 5.674233-12.687974 12.68695-12.687974 7.015787 0 12.694113 5.67321 12.694113 12.687974 0 84.102467 68.184939 152.287405 152.288428 152.287405 7.013741 0 12.68695 5.674233 12.68695 12.69309C626.21274 573.516444 620.538507 579.189653 613.52579 579.189653L613.52579 579.189653zM613.52579 579.189653"  horiz-adv-x="1024" />

    
    <glyph glyph-name="buzhichi1" unicode="&#58957;" d="M512 751.930903c-249.594615 0-451.930903-202.337311-451.930903-451.930903 0-249.594615 202.336288-451.930903 451.930903-451.930903 249.593592 0 451.930903 202.336288 451.930903 451.930903C963.930903 549.593592 761.593592 751.930903 512 751.930903zM884.842637 300c0-93.034906-34.154891-178.041976-90.50734-243.35961L268.64039 582.334273c65.317635 56.352449 150.323681 90.508363 243.35961 90.508363C717.913766 672.842637 884.842637 505.91479 884.842637 300zM139.157363 300c0 84.375689 28.060079 162.17766 75.312266 224.658689L736.658689 2.46963c-62.482053-47.252187-140.284023-75.312266-224.658689-75.312266C306.08521-72.842637 139.157363 94.08521 139.157363 300z"  horiz-adv-x="1024" />

    
    <glyph glyph-name="search2" unicode="&#59018;" d="M886.721 90.815l-109.511 109.501c-10.071 10.084-26.413 10.084-36.492 0l-2.949-2.947c0 0-54.103 53.791-55.538 54.693 42.858 53.354 68.521 121.108 68.521 194.864 0 171.993-139.423 311.414-311.407 311.414-171.984 0-311.406-139.422-311.406-311.414 0-171.974 139.422-311.406 311.406-311.406 73.768 0 141.53 25.669 194.884 68.537 0.903-1.432 54.69-55.525 54.69-55.525l-2.953-2.951c-10.071-10.085-10.071-26.437 0-36.506l109.505-109.504c10.082-10.084 26.422-10.084 36.503 0l54.751 54.752c10.072 10.084 10.072 26.413-0.002 36.493zM439.344 255.477c-105.736 0-191.447 85.712-191.447 191.448 0 105.761 85.711 191.473 191.447 191.473 105.748 0 191.471-85.712 191.471-191.473 0-105.735-85.721-191.448-191.471-191.448z"  horiz-adv-x="1024" />

    
    <glyph glyph-name="gouwuche1" unicode="&#58960;" d="M412.191318 535.9345l0-58.984393 481.093083 0-37.242206-275.257088L340.250846 201.69302 215.353254 700.837224l-2.78237-0.816598L212.570885 712.884608 67.393411 712.884608l0-58.984393L170.711522 653.900216l129.813554-518.803963 25.908066 7.614421 575.730487 0L902.163629 160.908128l3.279696-0.648776 40.536228 316.691779 10.624988 0 0 58.984393L412.191318 535.935524zM484.779543 417.965715l0-157.289326 54.440913 0L539.220457 417.965715 484.779543 417.965715zM666.249595 417.965715l0-157.289326 54.44296 0L720.692554 417.965715 666.249595 417.965715zM394.042983 83.726282c-50.118468 0-90.736561-44.025703-90.736561-98.325399 0-54.279231 40.618093-98.286514 90.736561-98.286514 50.100048 0 90.736561 44.007283 90.736561 98.286514C484.779543 39.700579 444.143031 83.726282 394.042983 83.726282zM394.042983-73.581464c-30.073946 0-54.440913 26.418696-54.440913 58.983369 0 32.584116 24.367991 59.002812 54.440913 59.002812s54.440913-26.418696 54.440913-59.002812C448.484919-47.162768 424.116929-73.581464 394.042983-73.581464zM793.282826 83.726282c-50.119491 0-90.736561-44.025703-90.736561-98.325399 0-54.279231 40.61707-98.286514 90.736561-98.286514 50.116421 0 90.733491 44.007283 90.733491 98.286514C884.016317 39.700579 843.398224 83.726282 793.282826 83.726282zM793.282826-73.581464c-30.074969 0-54.443983 26.418696-54.443983 58.983369 0 32.584116 24.369014 59.002812 54.443983 59.002812 30.073946 0 54.43989-26.418696 54.43989-59.002812C847.722716-47.162768 823.355749-73.581464 793.282826-73.581464z"  horiz-adv-x="1024" />

    
    <glyph glyph-name="icon7" unicode="&#58937;" d="M533.224 698.388 51.113 362.589 77.612 333.907 110.5 353.087 110.5-68.705 153-68.705 160.5-68.705 396-68.705 396-26.705 148.5-26.705 149.243 384.295 532.224 649.249 884.487 386.295 883.662-21.705 639.162-21.705 639.162-63.705 874.662-63.705 882.162-63.705 924.662-63.705 924.662 352.192 953.068 329.907 984.566 361.589ZM824.912 513.102 861.912 513.102 861.912 612.5 861.912 613.102 861.912 662.5 701.912 662.5 701.912 624.5 824.912 624.5ZM771.633 360.96c-45.484 58.62-82.368 59-107.957 60.576-65.46 4.016-132.818-46.705-146.442-63.613-27.872 35.905-92.895 67.658-156.563 61.142-20.108-2.09-37.505-11.261-53.166-21.356-15.66-10.099-28.85-22.581-39.567-37.396-10.721-14.847-18.755-31.646-24.128-50.398-5.345-18.752-7.624-38.861-6.783-60.275 0.814-21.438 5.156-41.63 13-60.602 7.841-18.969 17.204-36.582 28.143-52.891 10.935-16.284 22.578-31.215 34.952-44.81 12.376-13.594 23.911-25.537 34.629-35.85 16.475-16.096 33.194-31.317 50.071-45.757 16.908-14.438 32.974-26.923 48.228-37.423 15.251-10.529 60.844-38.919 70.94-43.478 12.24 3.011 172.738 86.925 242.865 211.654C768.893 156.635 830.607 284.918 771.633 360.96L771.633 360.96zM745.932 235.608c-39.757-169.103-220.935-260.507-227.123-260.507-6.841-0.381-194.259 98.296-234.805 258.443-10.855 42.936 23.501 164.163 127.443 141.582 8.115-1.765 70.371-24.668 110.48-71.701 11.316 14.061 23.284 26.73 35.959 38.022 10.965 9.253 23.367 17.641 37.265 25.186 13.895 7.517 28.36 10.771 43.419 9.77C659.821 374.692 778.173 372.631 745.932 235.608L745.932 235.608z"  horiz-adv-x="1024" />

    
    <glyph glyph-name="jinlingyingcaiicon02" unicode="&#59319;" d="M286.624-44.768 392.992-154.528 852.704 299.936 385.984 756.672 272.64 644.672 639.968 304.544Z"  horiz-adv-x="1024" />

    
    <glyph glyph-name="youhui" unicode="&#58913;" d="M1017.771 288.669c0-280.666-227.523-508.191-508.191-508.191s-508.19 227.525-508.19 508.191c0 280.665 227.523 508.19 508.191 508.19s508.19-227.523 508.19-508.19zM190.135 310.783c4.669-20.163 8.596-39.372 11.779-57.622 7.958 9.233 15.599 18.836 22.923 28.812v-149.152h42.661v38.045c9.338-10.506 19.421-23.081 30.244-37.725 48.921 42.978 74.601 105.589 77.043 187.834h13.371v-134.030c0-29.502 13.371-44.253 40.113-44.253h27.061c11.037 0 20.241 2.256 27.618 6.765 7.375 4.511 12.282 12.098 14.724 22.764 2.441 10.665 5.306 28.943 8.596 54.838-13.795 5.093-27.061 10.61-39.795 16.555-3.079-32.369-5.36-50.647-6.845-54.838-1.487-4.194-5.253-6.287-11.301-6.287h-6.048c-7.642 0-11.461 4.987-11.461 14.964v123.522h70.356v41.706h-126.708c0.637 46.693 0.955 73.646 0.955 80.864h-42.661c0-26.849-0.267-53.804-0.797-80.864h-53.007v-41.706h52.211c-4.14-66.326-25.364-115.513-63.674-147.561v177.805c12.946 25.362 24.3 52.422 34.065 81.183l-43.933 12.735c-19.1-57.732-41.601-102.514-67.492-134.35zM401.527 413.933c26.742-20.589 44.89-34.915 54.441-42.978l27.061 31.836c-17.405 14.22-36.401 27.379-56.987 39.476l-24.514-28.334zM516.455 158.606l36.93-17.51c9.551 17.191 19.631 39.264 30.244 66.22l-39.476 14.644c-7.642-22.285-16.875-43.404-27.698-63.354zM520.912 223.87l135.781 1.433-8.119-5.253c10.825-13.796 20.48-27.061 28.972-39.796l31.836 22.286c-5.627 7.642-11.834 15.441-18.624 23.399l90.415 1.751 9.551-9.233-27.538-14.644c11.247-15.919 22.923-34.913 35.020-56.987l35.657 21.648c-8.277 13.583-17.247 26.847-26.9 39.796l26.583 19.421c-18.254 14.855-36.718 29.182-55.395 42.978h29.289v109.517h-112.063v14.964h129.892v31.836h-129.892v19.421h-40.113v-19.421h-130.529v-31.836h130.528v-14.964h-111.426v-109.517h111.426v-16.555c-49.878 0.211-95.404 0.849-136.578 1.91l2.23-32.156zM583.311 352.49h71.95v-15.281h-71.95v15.281zM583.311 313.648h71.95v-15.281h-71.95v15.281zM721.083 183.915c-1.433-4.245-4.695-7.298-9.79-9.152s-11.038-2.786-17.829-2.786h-41.387c-11.249 0-16.874 5.306-16.874 15.919v30.244h-42.023v-41.068c0-27.379 15.493-41.068 46.48-41.068h67.174c17.295 0 29.979 3.662 38.045 10.985 8.063 7.323 15.227 22.764 21.489 46.321-18.042 7.642-31.307 14.007-39.796 19.101-2.228-14.752-4.059-24.251-5.491-28.495zM767.962 337.207h-72.587v15.281h72.587v-15.281zM695.375 298.367v15.281h72.587v-15.281h-72.587zM695.375 254.115v16.555h53.326l-8.119-5.731 11.779-10.506-56.987-0.319z"  horiz-adv-x="1024" />

    
    <glyph glyph-name="iconnav2" unicode="&#58890;" d="M1.023 672.476h158.037v-128.99h-158.037v128.99zM257.307 672.476h767.673v-128.99h-767.673v128.99zM1.023 352.303h158.037v-128.6h-158.037v128.6zM257.307 352.303h639.775v-128.6h-639.775v128.6zM1.023 32.884h158.037v-128.964h-158.037v128.964zM257.307 32.884h703.22v-128.964h-703.22v128.964z"  horiz-adv-x="1025" />

    
    <glyph glyph-name="jiudian" unicode="&#58949;" d="M670.811219 284.17668c-11.560416 0-20.953255-9.284459-21.224202-20.772623l0-0.379326c0-0.036126 0-0.036126 0-0.036126 0-0.036126 0-0.036126 0-0.036126l0-148.352655 0-0.036126 0-0.036126 0-0.036126c0.072253-11.704922 9.555407-21.133886 21.224202-21.133886 11.722985 0 21.224202 9.483154 21.224202 21.206139 0 0.072253 0 0.144505 0 0.216758l0 147.955265c0 0.072253 0 0.144505 0 0.252884 0 0.072253 0 0.144505 0 0.252884l0 0.180632C691.764473 274.910284 682.389698 284.17668 670.811219 284.17668zM580.892856 506.678568l-0.036126 0 0 0.018063L359.131558 506.696631c-0.415452 0.018063-0.830905 0.054189-1.264421 0.054189-8.688375 0-15.733004-7.044629-15.733004-15.751067 0-0.072253 0-0.162568 0-0.252884l0-397.533815 254.491727 0L596.62586 490.909437c0 0.018063 0 0.036126 0 0.036126C596.607797 499.633939 589.581231 506.678568 580.892856 506.678568zM448.200953 248.9716c0-9.808291-8.038102-17.810266-17.846393-17.810266l-17.322561 0c-9.790228 0-17.810266 8.001976-17.810266 17.810266l0 49.095643c0 9.808291 8.020039 17.846393 17.810266 17.846393l17.322561 0c9.808291 0 17.846393-8.038102 17.846393-17.846393L448.200953 248.9716zM448.200953 376.208432c0-9.826354-8.001976-17.846393-17.82833-17.846393l-17.286435 0c-9.826354 0-17.846393 8.020039-17.846393 17.846393L395.239795 425.267948c0 9.790228 8.020039 17.846393 17.846393 17.846393l17.286435 0c9.826354 0 17.82833-8.038102 17.82833-17.846393L448.200953 376.208432zM543.538261 248.9716c0-9.808291-8.020039-17.810266-17.846393-17.810266l-17.286435 0c-9.826354 0-17.82833 8.001976-17.82833 17.810266l0 49.095643c0 9.808291 8.001976 17.846393 17.82833 17.846393l17.286435 0c9.826354 0 17.846393-8.038102 17.846393-17.846393L543.538261 248.9716zM543.59245 376.118116c0-9.808291-8.038102-17.82833-17.846393-17.82833l-17.304498 0c-9.808291 0-17.846393 8.020039-17.846393 17.82833l0 49.059517c0 9.808291 8.038102 17.82833 17.846393 17.82833l17.304498 0c9.808291 0 17.846393-8.020039 17.846393-17.82833L543.59245 376.118116zM512.018063 805.027624c-278.93117 0-505.027624-226.114518-505.027624-505.045687 0-278.913106 226.096454-505.027624 505.027624-505.027624 278.913106 0 505.009561 226.114518 505.009561 505.027624C1017.027624 578.93117 790.93117 805.027624 512.018063 805.027624zM761.723055 40.251896 761.723055 40.251896l-0.668337 0c0 0 0 0-0.018063 0 0 0 0 0-0.036126 0L263.035597 40.251896c-0.018063 0-0.054189 0-0.054189 0-0.018063 0-0.018063 0-0.054189 0l-0.487705 0 0 0c-14.396331 0.325137-25.956747 12.066185-25.956747 26.498642 0 14.649215 11.849427 26.498642 26.498642 26.498642 0.3432 0 0.668337 0 1.011536-0.036126l25.234221 0L289.227165 527.956959c0 0.072253-0.018063 0.162568-0.018063 0.270947 0 17.358688 14.107321 31.466008 31.484071 31.466008L616.495325 559.693914c0.523831 0.018063 1.0296 0.036126 1.553431 0.036126 17.376751 0 31.466008-14.089257 31.466008-31.466008 0-0.28901 0-0.596084-0.036126-0.885094l0-190.29529 52.328947 0c0.3432 0 0.668337 0.018063 1.047663 0.018063 17.304498 0 31.357629-14.017005 31.447945-31.321503l0.018063 0 0-212.549092 25.703863 0c0.3432 0.036126 0.668337 0.036126 1.011536 0.036126 14.649215 0 26.498642-11.849427 26.498642-26.498642C787.535297 52.354207 776.065197 40.649286 761.723055 40.251896z"  horiz-adv-x="1024" />

    
    <glyph glyph-name="xiepinglunpsd" unicode="&#58961;" d="M910.215901 385.329185c-15.729669 0-28.444247-12.686134-28.444247-28.415803L881.771654-98.223012c0-31.34556-25.514489-56.888494-56.888494-56.888494L142.221235-155.111506c-31.374004 0-56.888494 25.542934-56.888494 56.888494L85.332741 698.215901c0 31.402449 25.514489 56.888494 56.888494 56.888494l511.996444 0c15.729669 0 28.444247 12.743023 28.444247 28.444247 0 15.729669-12.714578 28.444247-28.444247 28.444247L142.221235 811.992889C79.473226 811.992889 28.444247 760.96391 28.444247 698.215901l0-796.438914c0-62.748009 51.028979-113.748543 113.776988-113.748543l682.661926 0c62.748009 0 113.776988 51.000535 113.776988 113.748543L938.660148 356.913383C938.660148 372.643051 925.94557 385.329185 910.215901 385.329185zM987.214478 803.658725c-11.121701 11.121701-29.098465 11.121701-40.220165 0l-711.106173-711.106173c-11.121701-11.121701-11.121701-29.098465 0-40.191721C241.434768 46.785758 248.716495 43.998222 255.998222 43.998222s14.563454 2.787536 20.110083 8.362609l711.106173 711.106173C998.336178 774.588704 998.336178 792.537024 987.214478 803.658725z"  horiz-adv-x="1024" />

    
    <glyph glyph-name="tuangou1" unicode="&#58989;" d="M686.269557 579.719726l-92.121094 0 0-77.388555L209.808982 502.331171l0-91.188862 384.52777 0 0-260.138762c0-15.477506-3.174296-25.920346-9.511631-31.515784-5.408173-5.034666-16.594957-7.461949-33.94102-7.461949l-78.69327 0 0-91.744517L576.244698 20.281297c30.209022 0 51.469232 2.980891 63.778582 8.950859 12.30321 5.963829 23.49204 15.847943 33.377178 29.64825 8.578376 12.495592 12.869099 34.69008 12.869099 66.948785L686.269557 411.14231l127.923508 0 0 91.188862-127.923508 0L686.269557 579.719726zM374.658494 359.867506c-13.241582-42.331108-22.753213-71.79414-28.344558-88.204901-15.292288-43.077098-33.56956-77.576843-54.825676-103.500259-22.188348-26.851555-49.41955-46.620807-81.679277-59.113329l0-88.769766c80.373539 13.427824 142.098345 57.06467 185.366801 130.545218 26.476001 46.061059 52.770877 115.803469 79.065753 209.042014L374.658494 359.866483zM957.782368 33.052159 957.782368 583.356556c0 52.217269-20.327978 91.376127-61.166081 117.296473-16.968463 11.190877-44.008306 16.783245-81.118506 16.783245L200.667787 717.436274c-41.582047 0-74.217329-11.751648-98.086969-35.435047-24.241101-24.240077-36.365232-59.857273-36.365232-106.850563l0-549.555337c0-28.903284 3.172249-51.656497 9.512654-68.438719 4.288676-11.935843 13.051247-24.614607 26.294876-38.044478 24.612561-24.428366 59.298548-36.550451 104.054891-36.550451l613.893668 0c53.333696 0 93.428879 19.583011 119.906927 58.741869 11.935843 17.529235 17.903765 48.111764 17.903765 91.746564L957.782368 33.050112zM865.662297 40.79347c0-22.933315-4.663206-39.904849-14.362102-50.723242-9.31925-10.815323-26.106588-16.222473-50.719148-16.222473L227.523435-26.152245c-25.545816 0-43.075051 4.662183-52.773947 13.798261-11.000542 10.444886-16.410762 28.16241-16.410762 53.145407L158.338726 556.225639c0 20.327978 2.237971 34.498722 6.529717 42.332131 3.914146 7.27366 10.440793 13.800307 19.390629 19.766183 7.832386 5.221932 25.363667 7.832386 52.215222 7.832386l556.458561 0c27.599591 0 47.179532-5.967922 58.741869-17.903765 9.323343-9.135054 13.986549-26.666336 13.986549-52.213175L865.661274 40.79347z"  horiz-adv-x="1024" />

    
    <glyph glyph-name="liren" unicode="&#58886;" d="M857.069595 607.263036c-62.886259 59.107189-150.922315 37.883819-209.581296-15.60235C512.399601 716.364873 368.457258 723.909709 194.010157 617.694619c-33.32192-21.251-51.064003-38.521339-51.806923-39.245839l-9.139148-8.996908 11.193947-6.279007c0.434905-0.243547 43.459814-24.89704 48.834218-74.251098 2.431376-67.802222-129.120776-145.538701-129.120776-145.538701l70.64599-32.639375c-9.759271-42.957371-25.112957-112.906489 13.450337-181.282786 11.863189-15.192004 29.730115-26.231431 49.216935-27.567869 15.738449-1.077541 32.335453-1.223874 46.495964-1.223874 6.011924 0 12.088316 0.028653 18.192338 0.059352 6.131651 0.029676 12.289907 0.062422 18.444071 0.062422 134.496204 0 142.361335-29.731138 150.010549-51.073212 29.267581-81.645508 36.338626-130.182968 36.408211-130.659829l1.159406-8.28264 200.37768 0 42.799782 0c-20.810978 50.988278-125.768425 180.829462-62.616106 256.689197 43.717687 56.394405 72.953545 128.826064 80.207763 198.72504 3.917216 37.71088 1.449002 73.503061-7.317663 106.383936-7.585769 28.432563-23.246447 57.95597-39.825031 80.605829 24.016996 17.092283 81.748862 56.594973 124.507712 20.12434 84.472903-72.048943-103.756085-335.175759-122.325-430.110945-48.752354-221.688032 218.542388-193.074344 277.022291-63.534012-22.240537-31.798217-222.967164-39.051411-167.899988 115.077945 28.175713 78.863139 66.248843 154.233734 82.378196 208.778001C908.046616 514.240409 897.145335 569.584901 857.069595 607.263036L857.069595 607.263036zM857.069595 607.263036"  horiz-adv-x="1024" />

    
    <glyph glyph-name="jiantou0101" unicode="&#58950;" d="M277.44 194.72 528.213333 445.386667 778.88 194.72Z"  horiz-adv-x="1024" />

    
    <glyph glyph-name="xingxing1" unicode="&#58911;" d="M512 812c89.035626 0 157.663492-334.289947 157.663492-334.289947s324.898765 35.126631 352.349912-53.547795S767.006702 163.827866 767.006702 163.827866s132.289242-312.52769 60.229982-367.339683C755.177425-258.23351 512-29.955556 512-29.955556s-243.177425-228.187654-315.236684-173.556261c-71.968959 54.811993 60.229982 367.339683 60.229982 367.339683s-282.548148 171.659965-255.097002 260.244092 352.440212 53.547795 352.440212 53.547795S422.964374 812 512 812z"  horiz-adv-x="1024" />

    
    <glyph glyph-name="chanquanqingkuang" unicode="&#58962;" d="M825.248-210.752 198.72-210.752c-38.912 0-69.408 25.44-69.408 57.952L129.312 626.208c0 32.512 30.496 57.984 69.408 57.984l91.296 0c17.664 0 32-14.336 32-32s-14.336-32-32-32L198.72 620.192c-2.24 0-4.032-0.32-5.408-0.704l0-765.536c1.344-0.384 3.168-0.672 5.408-0.672l626.528 0c2.24 0 4.064 0.32 5.44 0.672L830.688 619.488c-1.376 0.384-3.2 0.704-5.44 0.704l-91.552 0c-17.696 0-32 14.336-32 32s14.304 32 32 32l91.552 0c38.944 0 69.44-25.472 69.44-57.984L894.688-152.8C894.688-185.312 864.192-210.752 825.248-210.752zM672 748 351.904 748c-17.664 0-32 14.336-32 32s14.336 32 32 32L672 812c17.696 0 32-14.336 32-32S689.696 748 672 748zM350.656 265.312 350.656 138.88 350.656 265.312ZM350.656 106.88c-17.664 0-32 14.304-32 32l0 126.432c0 17.664 14.336 32 32 32s32-14.336 32-32l0-126.432C382.656 121.184 368.352 106.88 350.656 106.88zM512 265.312 512 138.88 512 265.312ZM512 106.88c-17.664 0-32 14.304-32 32l0 126.432c0 17.664 14.336 32 32 32s32-14.336 32-32l0-126.432C544 121.184 529.664 106.88 512 106.88zM672.992 265.312 672.992 138.88 672.992 265.312ZM672.992 106.88c-17.696 0-32 14.304-32 32l0 126.432c0 17.664 14.304 32 32 32s32-14.336 32-32l0-126.432C704.992 121.184 690.688 106.88 672.992 106.88zM280.896 11.008 743.136 11.008 280.896 11.008ZM743.136-20.992 280.896-20.992c-17.664 0-32 14.304-32 32s14.336 32 32 32l462.24 0c17.696 0 32-14.304 32-32S760.8-20.992 743.136-20.992zM748.928 365.344c-0.128 0-0.384 0-0.64 0L275.744 365.344c-14.752 0-27.584 10.08-31.072 24.384-3.52 14.336 3.232 29.184 16.288 36l236.288 123.008c9.28 4.8 20.288 4.8 29.568 0l232.896-121.248c12.416-4.416 21.248-16.256 21.248-30.144C780.928 379.648 766.624 365.344 748.928 365.344zM406.496 429.344l211.04 0L512 484.256 406.496 429.344z"  horiz-adv-x="1024" />

    
    <glyph glyph-name="weibiaoti1" unicode="&#58891;" d="M279.019497 480.223842l58.634072 0c-7.901464 28.446146-16.632243 55.942629-26.198901 80.478524-9.56447 24.535895-20.376193 46.435052-32.435171 66.128538l-50.52692 0c13.30842-26.257981 24.120144-52.61443 32.43736-76.734574C269.247152 525.978375 275.277735 502.105493 279.019497 480.223842zM511.995624 812C229.742019 812 0 582.328003 0 300.004376c0-282.260169 229.742019-512.004376 511.995624-512.004376 282.260169 0 512.002188 229.744207 512.002188 512.004376C1024 582.328003 794.255793 812 511.995624 812zM661.379467 412.390724l86.719171 0c-14.555674-41.575137-29.837819-76.625166-45.846435-106.565829-16.010804-29.940663-33.997521-55.157078-53.955775-75.115332-24.507449 26.345508-46.863932 60.332088-67.084766 101.119486L661.379467 412.390724zM524.238407 377.380083l-21.907909 0c1.897139-4.37633 3.833665-10.691375 5.800826-15.964853l-29.393622-29.137607c0.590805 15.53816 1.713333 31.741523-0.474832 48.50068l0 31.614609 79.662339 0L524.238407 377.380083zM478.26287 451.777696l0 105.031925 202.466541 0c7.805185 0 15.384989 0.26258 22.756917 0.398246l-105.635859-105.430171L478.26287 451.777696zM73.141607 300.004376c0 242.32178 196.534425 438.854017 438.854017 438.854017 104.526459 0 200.341832-36.647389 275.826964-97.64468l-41.912114-41.79833c-21.2624-2.20567-44.216252-3.216603-68.920636-3.216603L419.182413 596.198781l0-222.280376c2.188165-39.446052-0.42888-75.056251-5.875223-106.869984l-99.156702-99.651227L314.150488 410.202559l-140.042567 0 0-37.198807 78.773944 0 0-250.468319c0-5.61702 0.367612-11.065551 0.177241-16.365287l-82.102143-81.920525C109.959673 99.662544 73.141607 195.477917 73.141607 300.004376zM221.623926-28.41076l71.025651 71.069414c25.481183-38.500765 70.620841-56.960126 135.451796-54.771961l392.250477 0c-79.268469-78.773944-188.173446-126.703512-308.358415-126.703512C400.528305-138.81463 299.006197-96.944091 221.623926-28.41076zM850.250938 19.857974l0 9.603857L428.103562 29.461831c-49.500671 0-83.220295 16.999855-100.559316 48.305933l23.807236 24.19673 0-14.363116c45.951467 28.058841 79.430393 66.165736 100.255161 114.290052l88.369048 88.207124c3.435419-6.369749 7.028386-12.538186 10.619165-18.481242 18.087373-29.942851 37.938407-54.894498 59.561854-74.852752-41.16595-32.023796-92.50468-62.585898-151.585138-91.697247l0-37.426376c41.575137 14.971426 78.644842 30.463635 109.832759 46.47225 31.187917 16.010804 57.892284 32.540203 79.933671 49.590386 45.325652-35.347619 107.824024-67.369227 186.597967-96.062636l0 39.923072c-30.634311 13.30842-59.428376 26.925372-84.587898 40.855231-25.159522 13.932047-47.542263 28.796253-67.086954 44.601369 27.446155 24.951647 51.375928 55.410905 72.377937 91.382151 20.999821 35.971246 39.909943 78.283795 53.038934 126.937646l0 40.435103-107.377638 0 116.637953 116.007761c4.255981 0.9059 8.245006 1.601737 12.621336 2.619234l0 9.369723 10.225296 10.599472c68.533331-77.382271 110.50015-178.904379 110.50015-290.371697C951.282897 193.510757 913.707726 95.870454 850.250938 19.857974z"  horiz-adv-x="1024" />

    
    <glyph glyph-name="zhichi" unicode="&#58906;" d="M512 808.85632C231.40352 808.85632 3.14368 580.56576 3.14368 300c0-280.60672 228.25984-508.8768 508.85632-508.8768 280.576 0 508.85632 228.27008 508.85632 508.8768C1020.85632 580.56576 792.576 808.85632 512 808.85632zM512-169.72928C252.59008-169.72928 42.2912 40.57984 42.2912 300 42.2912 559.40992 252.59008 769.71904 512 769.71904c259.40992 0 469.72928-210.29888 469.72928-469.7088C981.72928 40.57984 771.40992-169.72928 512-169.72928zM702.976 449.15584 450.75456 180.40704l-91.98592 98.01728c-9.91232 10.53696-25.93792 10.53696-35.84 0-9.91232-10.56768-9.91232-27.65824 0-38.22592l127.83616-136.20224 288.04096 306.98496c9.91232 10.55744 9.91232 27.648 0 38.17472C728.90368 459.70304 712.82688 459.70304 702.976 449.15584z"  horiz-adv-x="1024" />

    
    <glyph glyph-name="duoren" unicode="&#58963;" d="M938.991907 59.956925c-47.318702 33.738405-120.266108 15.788591-165.55764 76.001975 0 0-16.920368 19.001773 21.029966 65.316611 38.026058 46.576805 41.180911 120.262014 31.603789 177.422875-9.472745 56.787354-63.105247 94.844112-119.268384 94.844112-55.762001 0-109.523439-38.056758-119.156844-94.844112-9.368368-57.160861-6.053879-130.84607 31.897478-177.422875 19.000749-23.315008 24.233937-39.791262 24.787546-50.263777 17.368576-5.79089 35.211966-13.579273 51.551096-25.369807 71.662133-50.895157 67.606771-148.893098 65.053622-176.366823l213.975373 0C974.908932-50.724897 986.593042 26.249219 938.991907 59.956925L938.991907 59.956925zM667.670455 86.169937c-16.344247 11.630898-35.287691 18.158568-55.131645 23.50125-51.157123 13.343913-109.160165 16.813944-149.684114 70.474075 0 0-20.7373 23.447015 26.105564 80.762395 47.13246 57.524135 51.001581 148.685367 39.157835 219.158419-11.68411 70.451562-78.212316 117.475552-147.398048 117.475552-68.99949 0-135.602398-47.02399-147.286508-117.475552-11.843746-70.473051-8.001231-161.629167 39.155788-219.158419 46.843888-57.31538 26.079982-80.762395 26.079982-80.762395-40.238446-53.185316-97.763604-57.054437-148.657738-70.104661-20.208251-5.343705-39.525202-12.029988-56.156998-23.86964-58.976206-41.739637-44.446281-136.894833-44.446281-136.894833l6.522554 0 268.109294 0 56.679907 0 58.239426 0 267.842211 0 5.26798 0C712.067618-50.724897 726.56582 44.4303 667.670455 86.169937L667.670455 86.169937zM667.670455 86.169937"  horiz-adv-x="1024" />

    
    <glyph glyph-name="daohang" unicode="&#58941;" d="M957.335183 479.817412 274.789948 479.817412 274.789948 544.285702 892.866892 544.285702 892.866892 577.031501 274.789948 577.031501 274.789948 641.499791 957.335183 641.499791ZM957.335183 219.897637 274.789948 219.897637 274.789948 283.342622 892.866892 283.342622 892.866892 317.111726 274.789948 317.111726 274.789948 382.603323 957.335183 382.603323ZM957.335183-41.045443 274.789948-41.045443 274.789948 24.446154 892.866892 24.446154 892.866892 56.168646 274.789948 56.168646 274.789948 121.660242 957.335183 121.660242ZM160.281985 434.515646c-53.838186 0-97.634668 43.795459-97.634668 97.650017 0 53.838186 43.795459 97.634668 97.634668 97.634668 53.839209 0 97.633644-43.795459 97.633644-97.634668C257.915629 478.311105 214.121194 434.515646 160.281985 434.515646zM160.281985 564.709871c-17.940604 0-32.54523-14.603603-32.54523-32.544207s14.603603-32.56058 32.54523-32.56058 32.54523 14.619976 32.54523 32.56058S178.223612 564.709871 160.281985 564.709871zM160.281985 174.156874c-53.838186 0-97.634668 43.795459-97.634668 97.633644 0 53.839209 43.795459 97.634668 97.634668 97.634668 53.839209 0 97.633644-43.795459 97.633644-97.634668C257.915629 217.952332 214.121194 174.156874 160.281985 174.156874zM160.281985 304.335748c-17.940604 0-32.54523-14.58723-32.54523-32.544207 0-17.925255 14.603603-32.544207 32.54523-32.544207s32.54523 14.618952 32.54523 32.544207C192.828238 289.747495 178.223612 304.335748 160.281985 304.335748zM160.281985-86.200876c-53.838186 0-97.634668 43.794435-97.634668 97.634668 0 53.838186 43.795459 97.633644 97.634668 97.633644 53.839209 0 97.633644-43.795459 97.633644-97.633644C257.915629-42.407464 214.121194-86.200876 160.281985-86.200876zM160.281985 43.976976c-17.940604 0-32.54523-14.588253-32.54523-32.544207 0-17.926278 14.603603-32.546254 32.54523-32.546254s32.54523 14.619976 32.54523 32.546254C192.828238 29.389746 178.223612 43.976976 160.281985 43.976976z"  horiz-adv-x="1024" />

    
    <glyph glyph-name="fuwuzhongxin" unicode="&#58910;" d="M163.09403-62.892143c-18.260899 0-33.084513 14.787798-33.084513 33.083489 0 71.867818 84.868923 123.880425 234.158041 144.595212l0 10.021238c-101.281731 77.522608-101.281731 221.320665-101.281731 308.839951 0 144.391575 84.97023 230.613308 227.307006 230.613308l7.577582 0c142.373615 0 227.342822-86.191034 227.342822-230.613308 0-10.592242-0.101307-21.411659-0.399089-32.327266-0.531096-18.295692-15.418154-32.725332-33.977859-32.159444-18.267039 0.494257-32.659841 15.715937-32.19526 33.977859 0.297782 10.289344 0.399089 20.482497 0.399089 30.508851 0 109.116163-54.233182 164.44019-161.169703 164.44019l-7.577582 0c-106.905822 0-161.133887-55.323003-161.133887-164.44019 0-105.714693 6.649444-213.18231 85.99456-263.710101 9.526981-6.083555 15.31787-16.60519 15.31787-27.92398l0-56.545854c0-16.938788-12.768815-31.100322-29.610388-32.887015-132.87631-14.030551-204.547653-52.940746-204.547653-82.390475C196.183659-48.069553 181.360046-62.892143 163.09403-62.892143L163.09403-62.892143zM828.147892-62.892143c-18.296715 0-33.088606 14.787798-33.088606 33.083489 0 29.484521-71.666226 68.359924-204.511837 82.390475-16.842597 1.786693-29.646204 15.948227-29.646204 32.887015l0 56.545854c0 18.296715 14.791891 33.088606 33.088606 33.088606s33.084513-14.791891 33.084513-33.088606l0-27.227108c149.290141-20.714787 234.127342-72.726372 234.127342-144.595212C861.232404-48.069553 846.409814-62.892143 828.147892-62.892143L828.147892-62.892143zM599.119685 233.8994c-45.49824 0-79.577407 4.629437-80.43596 4.862751-16.311501 5.027503-26.106588 21.603017-22.663162 38.349423 3.438309 16.677844 19.023262 27.824719 36.027541 26.169009 82.489736-9.031701 208.516034-1.257643 230.588749 44.670385 7.870248 16.443507 27.591405 23.491017 44.13622 15.514345 16.479323-7.907087 23.425525-27.656897 15.519462-44.13622C787.779486 247.395786 676.839791 233.8994 599.119685 233.8994L599.119685 233.8994zM892.499525 268.509662c-18.296715 0-33.084513 14.786775-33.084513 33.084513L859.415013 417.233915l-44.205804 15.751752c-13.166881 4.694929-21.967314 17.171078-21.967314 31.165814 0 166.031431-133.573181 301.093523-297.78722 301.093523-164.178223 0-297.782104-135.097908-297.782104-301.093523 0-10.68741-5.164626-20.714787-13.863752-26.934442l-19.225877-13.696953 0-121.92591c0-18.297738-14.82259-33.084513-33.084513-33.084513-18.266016 0-33.088606 14.786775-33.088606 33.084513l0 138.964982c0 10.688433 5.15951 20.714787 13.863752 26.934442l19.618826 13.96506c9.002025 194.515159 168.611186 349.959463 363.561249 349.959463 192.83489 0 351.121939-152.101163 363.233791-343.673294l44.927235-16.014742c13.171997-4.700045 21.972431-17.176195 21.972431-31.17093l0-138.964982C925.588131 283.296437 910.800333 268.509662 892.499525 268.509662L892.499525 268.509662zM892.499525 268.509662"  horiz-adv-x="1024" />

    
    <glyph glyph-name="waimai" unicode="&#58995;" d="M512 812C229.229513 812 0 582.770487 0 300c0-282.771913 229.229513-512 512-512 282.770487 0 512 229.228087 512 512C1024 582.770487 794.770487 812 512 812L512 812zM194.585437 550.443431c0 8.127392 6.577484 14.704875 14.709153 14.704875l250.015673 0c8.125966 0 14.703449-6.577484 14.703449-14.704875l0-132.359561c0-8.131669-6.577484-14.709153-14.703449-14.709153L209.29459 403.374717c-8.131669 0-14.709153 6.577484-14.709153 14.709153L194.585437 550.443431 194.585437 550.443431zM731.381111 35.708635c-61.495837 0-112.508764 44.435444-122.936065 102.946959L413.119588 138.655594c-10.425875-58.511515-61.438802-102.946959-122.940342-102.946959-66.547652 0-120.808684 52.050952-124.634262 117.657538l-0.373575 0 0 44.116051 0 29.414028 73.537209 102.946959-44.123181 0 0 44.118903 279.428275 0 0-44.118903-11.027587-18.379312-8.572259-14.308487L429.896235 256.31028l111.117126 0 65.361338 117.650409 0 88.242084-44.117477 0 0 44.117477 117.650409 0 0-0.745724c2.428236 0.345058 4.840788 0.745724 7.351725 0.745724 28.423057 0 51.476331-23.047571 51.476331-51.470628 0-2.355518-0.384982-4.628336-0.690115-6.89545l0.690115-0.456275-0.990971-2.472438c-1.219109-6.322255-3.658752-12.154015-6.962465-17.405451l-21.460591-53.65932 0-73.527228 29.414028-14.71343-0.517587-0.345058c65.840426-3.553239 118.173698-57.931191 118.173698-124.664205C856.388947 91.673568 800.418311 35.708635 731.381111 35.708635L731.381111 35.708635zM731.381111 226.894826c-36.549022 0-66.179781-29.629333-66.179781-66.178355 0-36.550448 29.630758-66.179781 66.179781-66.179781 36.554726 0 66.179781 29.629333 66.179781 66.179781C797.560891 197.265494 767.935836 226.894826 731.381111 226.894826L731.381111 226.894826zM731.381111 138.655594c-12.181106 0-22.062303 9.8869-22.062303 22.062303 0 12.181106 9.881197 22.062303 22.062303 22.062303 12.175403 0 22.062303-9.881197 22.062303-22.062303C753.443414 148.541069 743.562217 138.655594 731.381111 138.655594L731.381111 138.655594zM253.413493 521.029403l161.779293 0 0-29.414028L253.413493 491.615375 253.413493 521.029403 253.413493 521.029403zM290.179246 226.894826c-36.549022 0-66.179781-29.629333-66.179781-66.178355 0-36.550448 29.630758-66.179781 66.179781-66.179781 36.5533 0 66.185484 29.629333 66.185484 66.179781C356.36473 197.265494 326.732546 226.894826 290.179246 226.894826L290.179246 226.894826zM290.179246 138.655594c-12.175403 0-22.0566 9.8869-22.0566 22.062303 0 12.181106 9.881197 22.062303 22.0566 22.062303 12.181106 0 22.060877-9.881197 22.060877-22.062303C312.240123 148.541069 302.360352 138.655594 290.179246 138.655594L290.179246 138.655594zM290.179246 138.655594"  horiz-adv-x="1024" />

    
    <glyph glyph-name="appshusandian" unicode="&#59397;" d="M427.674964 301.382487c0 21.976524 9.05626 43.810808 24.586978 59.359946 15.531741 15.540951 37.383422 24.578792 59.352783 24.578792 21.983687 0 43.818995-9.03784 59.369156-24.578792 15.549138-15.549138 24.585955-37.383422 24.585955-59.359946s-9.036817-43.821041-24.585955-59.370179c-15.549138-15.540951-37.384445-24.577768-59.369156-24.577768-21.969361 0-43.821041 9.036817-59.352783 24.577768C436.731224 257.561445 427.674964 279.405963 427.674964 301.382487L427.674964 301.382487zM427.674964 633.898673c0 21.976524 9.05626 43.829228 24.586978 59.350736 15.531741 15.540951 37.383422 24.597211 59.352783 24.597211 21.983687 0 43.818995-9.05626 59.369156-24.597211 15.549138-15.521508 24.585955-37.374212 24.585955-59.350736s-9.036817-43.830251-24.585955-59.370179c-15.549138-15.529695-37.384445-24.585955-59.369156-24.585955-21.969361 0-43.821041 9.05626-59.352783 24.585955C436.731224 590.068422 427.674964 611.922149 427.674964 633.898673L427.674964 633.898673zM427.674964-31.143932c0 21.977547 9.05626 43.829228 24.586978 59.370179 15.531741 15.539928 37.383422 24.586978 59.352783 24.586978 21.983687 0 43.818995-9.048073 59.369156-24.586978 15.549138-15.540951 24.585955-37.392632 24.585955-59.370179 0-21.976524-9.036817-43.801599-24.585955-59.350736-15.549138-15.540951-37.384445-24.586978-59.369156-24.586978-21.969361 0-43.821041 9.04705-59.352783 24.586978C436.731224-74.944508 427.674964-53.119433 427.674964-31.143932L427.674964-31.143932zM427.674964-61.843118"  horiz-adv-x="1024" />

    
    <glyph glyph-name="iconfontyoujiantou" unicode="&#58893;" d="M400.556838 647.806291l-73.857125-73.28305L518.758937 384.014326 326.700737 193.498248l73.857125-73.30454 265.957281 263.820618L400.556838 647.806291 400.556838 647.806291zM400.556838 647.806291"  horiz-adv-x="1024" />

    
    <glyph glyph-name="fuwuzhongxin1" unicode="&#59143;" d="M632 401.6C648.000082 329.599642 678.66644 268.266921 724 217.6 750.666798 284.266998 771.999918 358.93292 788 441.6L592 433.6 592 269.6 596 97.6C593.33332 38.933038 573.333519-13.06644 536-58.4 519.999918-69.066721 510.66668-65.066762 508-46.4L516 177.6 516 685.6C516 757.60036 514.66668 814.93312 512 857.6L592 805.6 756 809.6 788 857.6 872 813.6C877.333361 810.93332 878.66668 806.93336 876 801.6L848 761.6 848 713.6 848 649.6C845.33332 593.59972 813.333642 546.93352 752 509.6 746.666639 509.6 744 512.26664 744 517.6 741.33332 546.93348 729.333437 568.2666 708 581.6 705.33332 589.60004 705.33332 592.26668 708 589.6 745.333519 586.93332 761.333361 597.59988 756 621.6L760 789.6 592 781.6 592 453.6 788 465.6 828 509.6 908 457.6C913.333361 454.93332 913.333361 450.93336 908 445.6L880 413.6C845.333161 314.932838 808.0002 233.600317 768 169.6 829.333642 113.599718 909.332838 64.26688 1008 21.6 1013.333361 16.266639 1013.333361 10.933361 1008 5.6 965.33312 8.26668 924.0002-13.06644 884-58.4 806.666281 2.933642 753.333478 58.933079 724 109.6 697.333202 74.933161 648.000358 22.933678 576-46.4 565.333279-51.733361 562.666639-49.066721 568-38.4 624.000282 28.266998 667.999841 90.933038 700 149.6 662.666481 216.266998 636.000082 300.266158 620 401.6L632 401.6ZM396 833.6 472 793.6C477.33336 790.93332 477.33336 786.93336 472 781.6L448 745.6 452 389.6 452 225.6C460.00004 100.26604 417.3338 16.26688 324-26.4 326.66668 8.266839 320.00008 29.599959 304 37.6 301.33332 40.26668 300 42.93332 300 45.6 300 48.26668 301.33332 49.6 304 49.6 354.66692 38.933279 374.66672 96.26604 364 221.6L364 769.6 276 765.6 264 745.6 260 585.6 332 589.6C340.00004 589.6 344 586.93336 344 581.6 344 573.59996 340.00004 569.6 332 569.6L260 565.6 260 433.6C260 420.2666 258.66668 405.60008 256 389.6L336 393.6C344.00004 393.6 348 390.93336 348 385.6 345.33332 377.599959 340.00004 373.6 332 373.6L256 369.6C253.33332 188.265759 174.66744 30.934001 20-102.4 14.66664-102.4 12-99.733361 12-94.4 9.33332-91.73332 10.66664-89.06668 16-86.4 85.33368-11.732961 130.66656 61.599642 152 133.6 176.00012 210.933719 188 320.265958 188 461.6L188 661.6C188 690.93348 186.66668 730.93308 184 781.6L184 829.6C181.33332 837.60004 182.66664 840.26668 188 837.6L276 785.6 360 789.6 396 833.6ZM1404 885.6 1492 829.6C1500.000041 826.93332 1498.666721 821.60004 1488 813.6L1468 793.6C1459.999959 780.2666 1450.666721 769.60004 1440 761.6L1664 769.6 1724 821.6 1816 749.6 1824 741.6C1821.33332 738.93332 1818.66668 737.6 1816 737.6L1772 709.6C1763.999959 701.59996 1750.666762 690.9334 1732 677.6 1670.666358 624.2664 1624.000159 586.93344 1592 565.6 1661.333678 530.93316 1802.6656 488.26692 2016 437.6 2021.333361 437.6 2024 436.26668 2024 433.6 2024 428.26664 2021.333361 425.6 2016 425.6 1978.666481 420.26664 1936.000241 390.9336 1888 337.6 1727.999201 393.60028 1609.333719 457.59964 1532 529.6 1433.332838 465.59968 1294.667561 398.93368 1116 329.6 1110.666639 326.93332 1106.66668 326.93332 1104 329.6 1101.33332 332.26668 1102.666639 336.266639 1108 341.6 1260.000758 416.26704 1386.666158 494.93292 1488 577.6 1455.999841 617.6002 1425.333478 661.59976 1396 709.6 1334.666358 642.933 1262.66708 577.60032 1180 513.6 1174.666639 510.93332 1170.66668 510.93332 1168 513.6 1165.33332 516.26668 1165.33332 518.93332 1168 521.6 1264.000481 625.60052 1338.666399 745.59932 1392 881.6 1392 884.26668 1393.33332 886.93332 1396 889.6 1396 889.6 1398.666639 888.26668 1404 885.6L1404 885.6ZM1424 461.6 1524 425.6C1529.333361 422.93332 1529.333361 418.93336 1524 413.6L1512 385.6 1512 353.6C1509.33332 337.599918 1508 325.600041 1508 317.6L1684 329.6 1728 381.6 1824 321.6C1829.333361 316.266639 1829.333361 310.933361 1824 305.6L1796 269.6C1796 253.599918 1794.66668 226.933519 1792 189.6 1789.33332 117.599642 1786.66668 77.600041 1784 69.6 1767.999918 13.599718 1717.33376-35.73312 1632-78.4 1623.999959-81.06668 1620-78.400041 1620-70.4 1625.333361-27.73312 1614.666798 1.599918 1588 17.6 1582.666639 17.6 1581.33332 20.266639 1584 25.6L1592 25.6C1650.666962 25.6 1678.66668 42.933161 1676 77.6 1684.000041 106.933478 1688 182.932721 1688 305.6L1504 297.6C1490.666598 108.265718 1340.001439-29.06624 1052-114.4 1046.666639-117.06668 1042.66668-115.733361 1040-110.4 1040-105.066639 1042.666639-101.06668 1048-98.4 1282.667843-26.399642 1405.333279 104.265718 1416 293.6L1300 285.6 1220 277.6 1188 305.6 1420 313.6C1420 318.933361 1421.33332 326.933279 1424 337.6L1424 361.6 1424 461.6 1424 461.6ZM1652 749.6 1420 737.6C1417.33332 729.59996 1412.000041 724.26668 1404 721.6 1438.666839 676.26644 1477.33312 637.60016 1520 605.6 1560.0002 640.26684 1603.999759 688.26636 1652 749.6L1652 749.6ZM2256 293.6C2226.666522 237.599718 2196.000159 217.599918 2164 233.6L2160 653.6C2160 658.93336 2161.33332 662.93332 2164 665.6 2166.66668 665.6 2169.33332 664.26668 2172 661.6L2248 617.6 2496 625.6 2496 709.6 2492 885.6 2612 853.6C2620.000041 853.6 2621.333361 849.60004 2616 841.6 2607.999959 833.59996 2601.333361 820.26676 2596 801.6L2596 625.6 2828 629.6 2876 689.6 2972 633.6C2977.333361 630.93332 2977.333361 626.93336 2972 621.6L2948 585.6 2952 353.6 2960 329.6C2965.333361 318.933279 2961.333402 313.6 2948 313.6 2881.333002 321.600041 2764.00084 322.933361 2596 317.6L2596 133.6 2596 21.6C2582.666598-29.066921 2553.33356-69.066522 2508-98.4 2499.999959-101.06668 2493.333361-95.733402 2488-82.4L2496 113.6 2496 317.6C2455.9998 317.6 2402.666998 316.26668 2336 313.6L2256 313.6 2256 293.6ZM2252 593.6 2252 341.6 2496 345.6 2496 597.6 2252 593.6ZM2832 605.6 2596 601.6 2596 349.6 2836 353.6 2832 605.6ZM3408 613.6 3516 565.6C3521.333361 565.6 3521.333361 561.60004 3516 553.6L3504 529.6 3472 141.6C3466.666639 88.266399 3491.999718 61.6 3548 61.6 3633.33376 50.933279 3711.999642 57.599882 3784 81.6 3800.000082 86.933361 3806.66668 101.599882 3804 125.6L3800 237.6C3800 242.933361 3802.666639 246.93332 3808 249.6 3810.66668 249.6 3813.33332 246.933361 3816 241.6L3844 161.6C3860.000082 124.266481 3882.666522 93.600118 3912 69.6 3954.66688 37.599841 3949.333601 8.266798 3896-18.4 3802.666199-47.733478 3678.667438-51.733437 3524-30.4 3435.99956-14.399918 3393.33332 48.266122 3396 157.6L3404 465.6C3404 545.6004 3402.66668 593.59992 3400 609.6 3400 614.93336 3402.666639 616.26668 3408 613.6L3408 613.6ZM3236 525.6C3236 530.93336 3239.999959 533.6 3248 533.6 3250.66668 533.6 3253.33332 530.93336 3256 525.6 3290.666839 408.26608 3294.666798 312.267039 3268 237.6 3243.999882 202.933161 3212.0002 184.26668 3172 181.6 3142.666522 186.933361 3139.999882 210.93312 3164 253.6 3209.33356 312.266962 3233.33332 402.93272 3236 525.6L3236 525.6ZM3500 849.6C3636.000681 812.26648 3707.999959 776.26684 3716 741.6 3716 698.93312 3702.666798 666.93344 3676 645.6 3649.333202 629.59992 3633.333361 633.59988 3628 657.6 3593.333161 748.26712 3548.000282 809.59984 3492 841.6 3486.666639 846.93336 3489.333279 849.6 3500 849.6L3500 849.6ZM3804 521.6C3945.334042 465.59972 4022.666598 409.60028 4036 353.6 4033.33332 310.93312 4016.000159 276.266798 3984 249.6 3957.333202 230.933238 3940.000041 236.266522 3932 265.6 3899.999841 380.267238 3856.000282 462.93308 3800 513.6 3794.666639 521.60004 3795.999959 524.26668 3804 521.6L3804 521.6Z"  horiz-adv-x="4045" />

    
    <glyph glyph-name="appshusandian1" unicode="&#59004;" d="M427.674964 385.382487c0 21.976524 9.05626 43.810808 24.586978 59.359946 15.531741 15.540951 37.383422 24.578792 59.352783 24.578792 21.983687 0 43.818995-9.03784 59.369156-24.578792 15.549138-15.549138 24.585955-37.383422 24.585955-59.359946s-9.036817-43.821041-24.585955-59.370179c-15.549138-15.540951-37.384445-24.577768-59.369156-24.577768-21.969361 0-43.821041 9.036817-59.352783 24.577768C436.731224 341.561445 427.674964 363.405963 427.674964 385.382487L427.674964 385.382487zM427.674964 717.898673c0 21.976524 9.05626 43.829228 24.586978 59.350736 15.531741 15.540951 37.383422 24.597211 59.352783 24.597211 21.983687 0 43.818995-9.05626 59.369156-24.597211 15.549138-15.521508 24.585955-37.374212 24.585955-59.350736s-9.036817-43.830251-24.585955-59.370179c-15.549138-15.529695-37.384445-24.585955-59.369156-24.585955-21.969361 0-43.821041 9.05626-59.352783 24.585955C436.731224 674.068422 427.674964 695.922149 427.674964 717.898673L427.674964 717.898673zM427.674964 52.856068c0 21.977547 9.05626 43.829228 24.586978 59.370179 15.531741 15.539928 37.383422 24.586978 59.352783 24.586978 21.983687 0 43.818995-9.048073 59.369156-24.586978 15.549138-15.540951 24.585955-37.392632 24.585955-59.370179 0-21.976524-9.036817-43.801599-24.585955-59.350736-15.549138-15.540951-37.384445-24.586978-59.369156-24.586978-21.969361 0-43.821041 9.04705-59.352783 24.586978C436.731224 9.055492 427.674964 30.880567 427.674964 52.856068L427.674964 52.856068zM427.674964 22.156882"  horiz-adv-x="1024" />

    
    <glyph glyph-name="jiantou1" unicode="&#58994;" d="M0.340651 486.331461 511.898725 896 1024 486.4Z"  horiz-adv-x="1024" />

    
    <glyph glyph-name="arrowDown" unicode="&#58978;" d="M527.929 145.232l438.277 431.027c6.798 6.686 6.891 17.619 0.203 24.42-6.686 6.801-17.62 6.891-24.42 0.203l-426.067-419.018-424.478 424.477c-6.743 6.743-17.677 6.743-24.42 0-3.372-3.372-5.058-7.792-5.058-12.211s1.687-8.84 5.058-12.211l436.584-436.584c6.705-6.705 17.56-6.75 24.32-0.102z"  horiz-adv-x="1024" />

    
    <glyph glyph-name="xingming1" unicode="&#58964;" d="M983.799158 583.365122 983.799158 583.365122c-25.707835 60.905139-62.630497 115.771525-109.732772 162.701264-46.929739 46.929739-101.796125 83.852401-162.701264 109.732772C648.217018 882.369671 581.10059 896 512.086268 896c-69.014322 0-136.13075-13.630329-199.278854-40.200842-60.905139-25.707835-115.771525-62.630497-162.701264-109.732772-46.929739-46.929739-83.852401-101.796125-109.732772-162.701264C13.630329 520.217018 0 453.10059 0 383.913732s13.630329-136.13075 40.200842-199.278854c25.707835-60.905139 62.630497-115.771525 109.732772-162.701264 46.929739-46.929739 101.796125-83.852401 162.701264-109.732772 63.148104-26.74305 130.264532-40.200842 199.278854-40.200842 69.014322 0 136.13075 13.630329 199.278854 40.200842 60.905139 25.707835 115.771525 62.630497 162.701264 109.732772 46.929739 46.929739 83.852401 101.796125 109.732772 162.701264 26.74305 63.148104 40.200842 130.264532 40.200842 199.278854C1024 453.10059 1010.542207 520.217018 983.799158 583.365122zM687.900253-32.070093c-55.729065-23.464869-114.908846-35.542376-175.813985-35.542376-60.905139 0-120.08492 11.904971-175.813985 35.542376-47.964954 20.359225-91.616512 48.482561-129.919461 83.679865 0.690143 1.725358 1.380286 3.450716 1.725358 5.34861 24.155013 107.489806 104.556698 194.965459 209.631003 228.264869 3.450716 1.035215 6.556361 2.760573 9.144398 4.831003 25.707835-12.422578 54.69385-19.32401 85.060152-19.32401 29.503623 0 57.454423 6.556361 82.472115 18.116259 0.862679-0.345072 1.552822-0.517607 2.415501-0.862679 111.630666-31.574052 196.863353-123.880708 220.155687-236.89166C778.999158 16.067397 735.520135-11.883404 687.900253-32.070093zM512.086268 330.94524c-75.570682 0-137.165965 61.422746-137.165965 137.165965 0 75.570682 61.422746 137.165965 137.165965 137.165965s137.165965-61.422746 137.165965-137.165965C649.079697 392.540522 587.65695 330.94524 512.086268 330.94524zM928.242628 208.099747c-16.04583-37.957877-36.922662-72.982645-62.457961-105.074305-33.471946 102.658804-111.113058 186.856276-211.183825 228.437405 33.989553 35.542376 54.866386 83.507329 54.866386 136.475821 0 108.870093-88.683404 197.553496-197.553496 197.553496-108.870093 0-197.553496-88.683404-197.553496-197.553496 0-52.968492 20.876832-100.933446 54.866386-136.475821-100.070767-41.581129-177.539343-125.606066-211.183825-228.437405C132.85257 135.117102 111.975737 170.314406 95.929907 208.272283 72.292502 263.828812 60.387532 323.008593 60.387532 383.913732c0 60.905139 11.904971 120.08492 35.542376 175.813985 22.774726 53.831171 55.383993 102.141196 96.792586 143.549789 41.408593 41.408593 89.718618 74.01786 143.549789 96.792586C391.828812 823.707498 451.008593 835.612468 512.086268 835.612468c60.905139 0 120.08492-11.904971 175.813985-35.542376 53.831171-22.774726 102.141196-55.383993 143.549789-96.792586 41.408593-41.408593 74.01786-89.718618 96.792586-143.549789 0 0 0 0 0 0 23.464869-55.729065 35.542376-114.908846 35.542376-175.813985C963.612468 323.008593 951.707498 263.828812 928.242628 208.099747z"  horiz-adv-x="1024" />

    
    <glyph glyph-name="youjiantou" unicode="&#58917;" d="M360.310206 821.829743l391.282614-410.150334 2.641153-2.775206c12.506848-13.151531 12.506848-34.468023 0-47.622624L360.310206-53.826674c-12.506848-13.159718-32.777521-13.159718-45.263903 0l-45.276183 47.613414c-12.510942 13.147438-12.510942 34.462906 0 47.614437l325.998749 343.692736L269.769097 726.589612c-12.510942 13.146415-12.510942 34.465976 0 47.621601l45.276183 47.622624C327.532685 834.985368 347.802334 834.985368 360.310206 821.829743L360.310206 821.829743 360.310206 821.829743zM360.310206 821.829743"  horiz-adv-x="1024" />

    
    <glyph glyph-name="zaixiankefu" unicode="&#58915;" d="M511.172145 713.634556c-142.694933 0-258.799254-116.576065-258.799254-259.849166 0-143.270031 116.105345-259.838933 258.799254-259.838933 142.702096 0 258.799254 116.568902 258.799254 259.838933C769.972423 597.05849 653.870148 713.634556 511.172145 713.634556L511.172145 713.634556 511.172145 713.634556zM511.172145 238.480742c-118.230752 0-214.432791 96.591919-214.432791 215.303624 0 118.714775 96.202039 215.303624 214.432791 215.303624 118.233821 0 214.43586-96.588849 214.43586-215.303624C725.608006 335.073684 629.405967 238.480742 511.172145 238.480742L511.172145 238.480742 511.172145 238.480742zM761.623267 230.973768l-13.696953 7.259334-11.510148-10.377348c-55.292304-49.860595-137.400347-78.45791-225.242997-78.45791-87.855954 0-169.950693 28.598338-225.229694 78.45791l-11.517311 10.377348-13.68365-7.259334C147.580197 170.857599 99.912547 98.481198 90.720188-27.150104c-0.911766-12.260232 8.281617-22.940478 20.494777-23.838941 0.541329-0.050142 1.100054-0.067538 1.641383-0.067538 11.520381 0 21.248953 8.937556 22.109554 20.61962 7.733125 105.778138 43.058678 163.53661 133.407406 214.832903 62.746066-50.731428 150.242839-79.544661 242.798838-79.544661 92.565209 0 180.051749 28.813233 242.809071 79.557964 90.322122-51.299363 125.660978-109.068068 133.391033-214.82267 0.898463-12.267395 11.43033-21.605064 23.747867-20.575618 12.217253 0.88516 21.399379 11.577686 20.50194 23.838941C922.42151 98.466871 874.750791 170.837132 761.623267 230.973768L761.623267 230.973768 761.623267 230.973768zM215.391628 349.850226 215.391628 545.994488c32.32522 136.75464 152.698774 233.221716 296.389384 233.221716 142.146441 0 261.33296-94.482885 295.167556-228.869594l0-198.239993 0-0.060375c59.154261 0 104.160291 46.873564 104.160291 104.69855 0 41.393759-23.862477 77.079516-58.68968 94.069469C817.359686 710.485843 678.317956 823.758676 511.781012 823.758676c-166.405961 0-305.390385-113.097848-340.564489-272.600585-35.1915-16.804734-59.292408-52.692083-59.292408-94.412276C111.917976 398.919804 157.294442 349.850226 215.391628 349.850226L215.391628 349.850226 215.391628 349.850226zM215.391628 349.850226"  horiz-adv-x="1024" />

    
    <glyph glyph-name="waimai02bfa3" unicode="&#58933;" d="M329.225233 250.720507c-20.349467-6.91141-31.262004-29.004591-24.360827-49.353035 1.228991-3.613294 2.951215-6.912433 5.04183-9.882068 9.664104-13.764492 27.568892-20.142759 44.303019-14.478759 8.121981 2.762927 14.705933 7.963369 19.291368 14.478759 6.892991 9.82374 9.209756 22.648836 5.071506 34.879392C371.667881 246.701984 349.5747 257.613498 329.225233 250.720507zM737.327932 250.720507c-10.148128-3.447519-17.943674-10.666944-22.358217-19.564591l2.651386 0c-2.010797-13.111622-1.714038-26.499537 0.930185-39.672558l-0.558725 0c9.667174-13.761422 27.578102-20.147876 44.319391-14.478759 20.349467 6.913457 31.251771 28.994358 24.361851 49.356105C779.769556 246.701984 757.677399 257.613498 737.327932 250.720507zM514.317789 894.183631C232.812393 894.183631 3.215228 664.598746 3.215228 383.093351c0-281.507442 229.597165-511.093351 511.101537-511.093351 281.506419 0 511.101537 229.584885 511.101537 511.093351C1025.419326 664.597723 795.823184 894.183631 514.317789 894.183631zM211.7988 633.196549c0 9.743922 7.90197 17.646915 17.647939 17.646915l208.807676 0c9.744945 0 17.648962-7.902994 17.648962-17.646915l0-205.868741c0-9.744945-7.90197-17.646915-17.648962-17.646915L229.445716 409.680892c-9.744945 0-17.647939 7.900947-17.647939 17.646915l0 205.868741L211.7988 633.196549zM437.630199 191.483358c-7.506974-32.017204-30.856775-59.556421-64.289212-70.904886-51.52449-17.45658-107.445104 10.140964-124.903731 61.654198-1.047866 3.069919-1.911536 6.160303-2.63399 9.249665-11.44875 48.799426 15.833617 99.223862 64.288189 115.653043 51.514257 17.469883 107.435894-10.128685 124.894522-61.641919C441.116603 227.411639 441.680445 208.792583 437.630199 191.483358zM781.446755 120.579495c-51.516304-17.457604-107.447151 10.141988-124.905778 61.654198-1.039679 3.069919-1.909489 6.160303-2.635013 9.249665L532.252253 191.483358c-16.111956 0-34.621519 0-54.546314 0-7.556093 0-15.309684 0-23.222911 0 3.832282 19.152199 2.87242 39.510876-3.841491 59.307757-15.835663 46.729278-59.605539 78.121242-108.922758 78.121242-12.535501 0-24.963555-2.057869-36.936237-6.119371-29.104875-9.862625-52.612265-30.479175-66.218144-58.028625-11.348466-22.994714-14.626115-48.543599-9.665127-73.281003-34.541701 0-57.000202 0-57.000202 0 0 41.433668 22.162766 102.513792 36.521798 137.756457l-1.457188 0c-7.29822 0-13.219069 5.922896-13.219069 13.221116l0 36.373419c0 7.299243 5.92085 13.221116 13.219069 13.221116l269.443685 0c7.299243 0 13.222139-5.921873 13.222139-13.221116l0-36.372396c0-5.942339-3.962242-10.93198-9.369392-12.57541 2.069125-24.421202 8.336876-61.951981 26.568099-98.730629l146.024771 0c2.753717 15.34857 9.102309 29.826306 18.460444 42.193984 5.634324 7.457856 12.355399 14.131859 20.032242 19.776416 2.127454 1.582031 4.336772 3.051499 6.617721 4.455475 6.237051 3.859911 12.981662 7.111978 20.228717 9.55461 1.981121 0.683569 3.981684 1.257643 5.982248 1.793856 9.456373 2.574638 18.99461 3.665483 28.380374 3.40761 27.718295-0.773619 53.940516-13.328563 71.973218-34.297131 7.993045-9.295714 14.390755-20.22974 18.568914-32.5483C860.56879 193.980225 832.959989 138.049379 781.446755 120.579495zM846.822718 275.687132c-20.786419 32.629141-57.07081 53.226249-96.997148 53.226249-1.287319 0-2.575662-0.037862-3.861958-0.077771-10.497075-0.357134-20.875446-2.159176-30.967292-5.367241-0.704035-0.225127-1.415232-0.433882-2.108011-0.673335-7.170307-2.424212-13.994736-5.513574-20.421098-9.18929-2.523473-1.441838-4.970198-3.007497-7.377014-4.634554-7.338129-4.978385-14.059204-10.773368-20.053732-17.328667l-74.565253 217.503732-31.432896-11.882632c-8.53642-3.228531-18.073634 1.088798-21.299095 9.625218-0.456395 1.189082-0.723477 2.397606-0.893346 3.594875 7.853875-0.88209 15.854083-1.337461 23.975041-1.337461l0.197498 0c4.051269 0.020466 8.110725 0.119727 12.07092 0.316202 8.823969 0.456395 16.932648 4.318352 22.844288 10.872628 5.912663 6.566556 8.91402 15.032368 8.457626 23.847128-0.049119 0.870834-0.147356 1.723248-0.25685 2.564405 1.190105-0.268106 2.357697-0.624217 3.475148-1.158383 4.060479-1.901303 7.14984-5.357008 8.604982-9.586332l9.53619-27.826765 34.630728 0c5.238304 22.261003 25.174356 38.85903 49.028647 38.85903 27.836999 0 27.836999-100.839663 0-100.839663-23.856337 0-43.790342 16.585747-49.028647 38.84982l-26.685779 0 6.999414-20.420075c25.391297-10.704806 68.518536-35.996842 87.720877-89.094154 2.116197-5.853311 4.157693-11.399631 6.128581-16.70752 31.341822 0.417509 75.894528-7.664563 107.930151-49.41341C862.341157 283.521564 859.183234 276.270417 846.822718 275.687132z"  horiz-adv-x="1026" />

    
    <glyph glyph-name="yanzhengma" unicode="&#58965;" d="M512 830.656c0 0-113.344-150.664-387.344-127.336L54 702.432c0 0-1.664 7.072 0 15.568 3.904 19.928 18 44 64 50S308 748 420 842c0 0 44.672 35.216 55.336 44.608S509.336 896 512 896s26.008-2.72 34.672-9.392 62.664-46 62.664-46 90.008-76 195.336-70c0 0 59.328-6 105.328-3.336 0 0 54-6 60-54s0-8.624 0-8.624l-70-1.336C900 703.328 655.32 674.656 512 830.656M54 702.432l70.656 0.888c0 0-1.992-276.648 8.672-291.312 0 0 32-396 378.664-476 0 0 318.672 36 381.336 484 0 0 14.664 186.624 6.664 283.312l70 1.336c0 0 19.328-301.968-47.336-464.64 0 0-101.328-338.68-410.664-368.016 0 0-296 0-430.664 428.016C81.336 300.016 38.664 467.52 54 702.432zM456 330.68l284 253.336c0 0 38.664 14.664 60-17.336 0 0 8-22.664 0-33.336S505.336 264.016 505.336 264.016L484 242.68c0 0-24-21.336-53.336 0S253.336 401.344 253.336 401.344s-9.336 22.664 0 40 24 21.328 45.336 22.664c0 0 20-9.336 26.664-16S456 330.68 456 330.68z"  horiz-adv-x="1024" />

    
    <glyph glyph-name="zaixiankefu1" unicode="&#58996;" d="M136.587636 281.6c8.331636 0 16.407273 1.024 24.32 2.443636-14.708364 42.216727-24.32 86.853818-24.32 134.074182s9.611636 91.857455 24.32 134.074182c-0.442182 0.069818-0.930909 0.046545-1.373091 0.139636 55.645091 160.186182 207.592727 275.386182 386.816 275.386182 179.2 0 331.147636-115.2 386.816-275.386182-0.442182-0.069818-0.930909-0.046545-1.349818-0.139636 14.708364-42.216727 24.32-86.853818 24.32-134.074182s-9.611636-91.857455-24.32-134.074182c7.912727-1.442909 15.988364-2.443636 24.32-2.443636 75.450182 0 136.587636 61.114182 136.587636 136.541091 0 57.413818-35.560727 106.356364-85.783273 126.533818C951.412364 747.077818 766.510545 896 546.373818 896 326.237091 896 141.335273 747.077818 85.783273 544.674909 35.560727 524.497455 0 475.554909 0 418.141091 0 342.737455 61.160727 281.6 136.587636 281.6L136.587636 281.6zM887.854545 213.341091c0 9.658182 1.349818 18.920727 2.141091 28.369455l0 176.453818L887.854545 418.164364c0 188.509091-152.878545 341.341091-341.480727 341.341091S204.893091 606.650182 204.893091 418.141091l0-176.453818c0.791273-9.425455 2.141091-18.711273 2.141091-28.369455 0-140.334545-84.852364-260.631273-205.963636-313.088C42.658909-117.783273 88.389818-128 136.587636-128c82.850909 0 157.789091 30.673455 216.901818 79.732364C402.106182-97.908364 464.942545-128 546.373818-128c82.385455 0 145.640727 30.324364 194.373818 80.244364C799.953455-97.117091 875.147636-128 958.301091-128c48.221091 0 93.928727 10.216727 135.517091 28.229818C972.706909-47.290182 887.854545 73.006545 887.854545 213.341091L887.854545 213.341091zM763.624727 142.708364c-22.690909-24.250182-51.153455-42.542545-83.130182-53.690182-5.957818 31.627636-32.442182 56.040727-65.815273 56.040727-37.725091 0-68.305455-30.557091-68.305455-68.282182 0-37.701818 30.580364-68.258909 68.305455-68.258909 27.787636 0 54.155636 4.980364 79.313455 12.753455-38.144-46.685091-86.318545-81.617455-147.595636-81.012364-217.693091 2.141091-275.688727 411.741091-275.688727 411.741091s251.508364 104.098909 280.343273 203.869091c0 0-28.392727-183.761455-77.474909-202.938182 0 0 190.231273 65.768727 209.431273 140.427636 0 0 12.334545-148.968727 138.263273-140.427636C821.224727 352.930909 806.423273 246.970182 763.624727 142.708364L763.624727 142.708364zM409.786182 349.858909c-37.725091 0-68.305455-30.557091-68.305455-68.258909l136.587636 0C478.068364 319.301818 447.511273 349.858909 409.786182 349.858909L409.786182 349.858909zM682.961455 349.858909c-37.725091 0-68.305455-30.557091-68.305455-68.258909l136.587636 0C751.266909 319.301818 720.686545 349.858909 682.961455 349.858909L682.961455 349.858909z"  horiz-adv-x="1094" />

    
    <glyph glyph-name="xiuxianyule" unicode="&#59011;" d="M405.167091 486.324451c0 0 25.045631 24.672989 50.466967 22.431011 28.129882-2.481898 48.972315-30.094166 48.972315-30.094166 32.242217 22.990485 61.681962-8.410481 61.681962-8.410481l68.410959 87.47594L321.802465 557.726756 405.167091 486.324451zM512 896C229.230006 896 0 666.769994 0 384S229.230006-128 512-128 1024 101.230006 1024 384 794.769994 896 512 896zM751.335242 529.688758c-5.514082 0-10.899525 0.538034-16.126724 1.526301-75.045009-78.930696-211.392191-216.97876-219.387151-225.071729l0-174.584343 95.326947 0c18.581057 0 33.644985-15.062907 33.644985-33.644985 0-18.581057-15.062907-33.644985-33.644985-33.644985L355.44745 64.269017c-18.581057 0-33.644985 15.062907-33.644985 33.644985 0 18.581057 15.062907 33.644985 33.644985 33.644985L458.625404 131.558987 458.625404 305.765583 202.924538 576.418074c0 0-37.382636 44.85998 0 46.354632l462.341615 0c3.436475 44.54349 40.64453 79.625954 86.069089 79.625954 47.693081 0 86.354951-38.662891 86.354951-86.354951C837.690193 568.350628 799.028323 529.688758 751.335242 529.688758z"  horiz-adv-x="1024" />

    
    <glyph glyph-name="qunfengwifihuijiehun" unicode="&#59020;" d="M512 896C229.231709 896 0 666.768291 0 383.995345 0 101.227055 229.231709-128 512-128c282.763636 0 512 229.227055 512 511.995345C1024 666.768291 794.763636 896 512 896zM454.083491 254.3104l-19.446691-12.739491-5.883345 4.468364-4.943127 2.718255-8.489891 5.566836c-40.825018 26.731055-78.959709 59.298909-110.280145 94.175418-13.484218 15.094691-26.144582 32.060509-34.494836 43.510691-39.465891 53.871709-45.600582 120.003491-15.625309 168.475927C275.549091 594.017745 308.852364 614.446545 346.288873 616.541091c42.840436 2.438982 71.787055-14.661818 88.617891-29.728582l0.5632 0.702836c15.932509 14.270836 44.404364 31.441455 87.640436 29.021091 37.441164-2.094545 70.763055-22.537309 91.419927-56.087273 23.533382-38.083491 25.455709-86.313891 4.882618-132.635927-10.030545 4.826764-22.784 7.470545-37.417891 8.340945 18.087564 36.361309 18.566982 75.654982 0.679564 104.624873-14.154473 22.974836-36.626618 36.961745-61.658764 38.381382-38.027636 2.2016-59.429236-15.620655-70.618764-30.445382l-12.055273-15.946473-1.424291-4.836073-17.826909 20.661527c-11.254691 14.931782-32.740073 32.730764-70.697891 30.561745-25.022836-1.401018-47.481018-15.373964-61.612218-38.334836-21.927564-35.449018-16.439855-85.192145 13.9776-126.733964 7.842909-10.761309 19.702691-26.670545 32.181527-40.629527 28.476509-31.720727 63.227345-61.5424 100.570764-86.304582l0.679564 0.479418 1.247418-0.795927c15.131927 10.011927 29.989236 21.052509 44.343855 32.814545 1.652364-13.065309 4.133236-27.163927 9.993309-39.898764C477.733236 270.433745 466.594909 262.507055 454.083491 254.3104zM766.966691 252.136727c-6.907345-9.467345-16.118691-21.755345-26.042182-32.8192-23.519418-26.228364-52.298473-50.809018-83.237236-71.093527l-14.996945-9.835055-4.752291 3.625891-3.658473 1.992145-6.437236 4.226327c-30.803782 20.168145-59.592145 44.7488-83.241891 71.084218-9.997964 11.184873-19.167418 23.421673-26.042182 32.837818-29.882182 40.8064-34.518109 90.903273-11.799273 127.632291 15.653236 25.437091 40.927418 40.936727 69.334109 42.523927 32.195491 1.787345 53.918255-10.817164 66.741527-22.132364l0.125673 0.111709c12.087855 10.831127 33.652364 23.868509 66.476218 22.020655 28.411345-1.5872 53.694836-17.096145 69.366691-42.5472C801.494109 343.044655 796.844218 292.943127 766.966691 252.136727zM707.798109 392.997236c-28.360145 1.657018-44.381091-11.654982-52.740655-22.723491l-9.169455-12.395055-1.200873-4.105309-14.126545 16.388655c-8.420073 11.175564-24.515491 24.441018-52.819782 22.8352-18.674036-1.047273-35.4304-11.478109-45.991564-28.625455-16.407273-26.5216-12.283345-63.767273 10.509964-94.892218 5.934545-8.136145 14.894545-20.154182 24.2176-30.580364 21.341091-23.766109 47.373964-46.1312 75.357091-64.740073l0.525964 0.372364 0.949527-0.619055c28.16 18.660073 54.3232 41.108945 75.738764 65.000727 9.155491 10.207418 17.733818 21.666909 24.180364 30.5152 22.802618 31.148218 26.949818 68.398545 10.570473 94.906182C743.242473 381.4912 726.472145 391.940655 707.798109 392.997236z"  horiz-adv-x="1024" />

    
    <glyph glyph-name="kefurexian" unicode="&#58916;" d="M956.158976 134.183936c-3.943424-17.17248-8.088576-30.68416-12.438528-40.528896-20.640768-33.867776-32.388096-40.635392-72.27904-62.732288-37.139456-20.128768-73.872384-30.19264-110.204928-30.19264-10.66496 0-171.784192-17.701888-415.625216 217.515008C101.771264 453.458944 127.888384 622.76096 127.860736 633.4208c0 36.289536 10.077184 72.9856 30.22336 110.084096 22.120448 39.851008 29.372416 50.075648 62.800896 72.20224 19.182592 8.101888 23.410688 8.481792 40.574976 12.424192 17.169408 3.938304 26.44992 3.150848 26.44992 3.150848 15.343616 0.538624 34.282496-9.650176 42.298368-22.755328l82.341888-134.593536c8.020992-13.108224 12.239872-35.977216 8.921088-50.967552 0 0-1.221632-13.530112-7.143424-19.20512-5.924864-5.677056-23.5008-22.664192-36.750336-32.540672-13.244416-9.872384-25.493504-20.328448-36.747264-31.364096-11.246592-11.034624-16.873472-20.115456-16.873472-27.236352 0-3.561472 0.98816-8.006656 2.960384-13.334528 1.969152-5.326848 3.652608-9.3696 5.042176-12.121088 1.389568-2.752512 4.159488-7.486464 8.305664-14.208 4.146176-6.718464 6.418432-10.466304 6.825984-11.24864 30.03392-54.068224 64.402432-100.438016 103.108608-139.098112 38.705152-38.66624 85.12512-72.997888 139.251712-103.000064 0.78336-0.40448 4.535296-2.679808 11.261952-6.821888 6.725632-4.141056 11.464704-6.902784 14.222336-8.291328 2.752512-1.389568 6.79936-3.068928 12.135424-5.040128 5.331968-1.973248 9.782272-2.95424 13.348864-2.95424 7.102464 0 16.191488 5.615616 27.262976 16.85504 11.07456 11.241472 21.540864 23.474176 31.399936 36.70528 9.858048 13.236224 20.71552 25.472 32.576512 36.711424 11.854848 11.2384 4.98688 4.186112 4.98688 4.186112 13.602816 6.998016 35.406848 6.422528 48.69632-1.27488l150.99392-87.491584c13.290496-7.7056 23.769088-26.394624 23.008256-41.740288C959.34464 160.45056 960.100352 151.356416 956.158976 134.183936L956.158976 134.183936zM956.158976 134.183936"  horiz-adv-x="1024" />

    
    <glyph glyph-name="kefu01" unicode="&#58920;" d="M512 896C229.248 896 0 666.784 0 384s229.248-512 512-512 512 229.216 512 512S794.752 896 512 896zM261.088 195.04c0.032 0.064 0 0.064-0.224 0.064-0.704 0-2.848-0.288-4.16-0.288-8.768 0-15.872 7.072-15.872 15.808 0 2.24 0.512 4.384 1.344 6.272L242.08 216.896c10.304 17.728 36.416 60.768 36.416 92.128 0 0.512 0.128 0.832 0.128 1.28-73.952 37.824-109.376 114.816-109.376 187.008 0 115.904 125.344 208.64 279.936 208.64 154.592 0 277.216-92.736 277.216-208.64 1.856-131.008-117.952-219.328-272.544-219.328-5.504 0-10.176-0.032-14.56-0.032-10.272 0-18.56 0.256-30.816 2.048C396.512 265.504 315.808 203.968 261.088 195.04zM761.632 181.504c0-0.384 0.128-0.64 0.128-1.088 0-27.104 13.984-71.904 22.816-87.2 0.64-1.696 1.088-3.424 1.088-5.408 0-7.584-6.08-13.696-13.696-13.696-1.152 0-2.944 0.192-3.584 0.192-0.224 0-0.256 0-0.256 0-47.232 7.68-105.28 63.104-115.648 75.648-10.656-1.568-17.824-1.856-26.688-1.856-3.776 0-7.808 0.064-12.544 0.064-87.264 0-156.864 32.768-199.36 84.768 1.504 1.344 71.232 1.344 61.248 0.704 36.8-28.8 79.968-42.656 138.112-42.656 0 0 24.096 0 32.992 1.28l22.496 3.488c0 0 14.432-25.6 56.224-56.224-3.328 13.92-5.504 68.8-5.504 68.8l21.312 10.56c50.048 25.632 71.552 59.072 71.552 105.312 0 37.76-10.4 63.68-47.008 88.992 4.768 14.528 9.184 31.136 10.56 46.592 56.608-33.28 79.296-77.504 79.296-135.584C855.2 261.92 825.536 214.208 761.632 181.504zM455.232 320.192c130.72 0 227.968 75.008 228.352 177.12 0 92.192-103.68 165.728-234.4 165.728-130.72 0-237.088-73.536-237.088-165.728 0-55.328 26.656-118.528 86.048-148.896l23.36-11.904-2.048-26.176c0 0 0.64-13.088-13.824-54.336 23.776 14.944 51.392 38.016 57.76 45.344l27.456 22.784 23.904-1.696C435.264 319.392 455.232 320.192 455.232 320.192z"  horiz-adv-x="1024" />

    
    <glyph glyph-name="kefurexian1" unicode="&#58921;" d="M942.322 574.707c-23.367 56.317-57.817 107.995-100.951 151.129s-94.816 77.589-151.129 100.951c-56.317 23.367-117.281 35.5-178.238 35.5-60.961 0-121.919-12.135-178.238-35.5-56.317-23.367-107.995-57.817-151.129-100.951-43.137-43.137-77.589-94.816-100.951-151.129-23.367-56.317-35.5-117.281-35.5-178.238 0-60.961 12.135-121.919 35.5-178.238 23.367-56.317 57.817-107.995 100.951-151.129 43.137-43.137 94.816-77.589 151.129-100.951 56.317-23.367 117.281-35.5 178.238-35.5 60.961 0 121.919 12.135 178.238 35.5 56.317 23.367 107.995 57.817 151.129 100.951 43.137 43.137 77.589 94.816 100.951 151.129 23.367 56.317 35.5 117.281 35.5 178.238 0 60.961-12.135 121.919-35.5 178.238zM736.524 242.941c-7.042-36.848-45.238-73.84-112.337-83.878-87.472-13.029-337.008 141.993-337.008 349.59 3.147 101.104 39.393 125.815 84.326 125.815 44.784 0 95.707-128.064 70.251-139.744-20.969-9.735-57.213-13.029-56.165-56.016 0.597-28.16 142.294-183.634 168.503-181.681 44.939 2.997 35.201 55.122 70.251 69.797 26.511 11.232 119.226-46.88 112.19-83.878z"  horiz-adv-x="1024" />

    
    <glyph glyph-name="kefurexianwode" unicode="&#58977;" d="M894.401852 832.16002 129.253294 832.16002c-36.229133 0-65.583694-29.334095-65.583694-65.584718l0-765.150604c0-36.208667 29.355585-65.583694 65.583694-65.583694l765.149581 0c36.219923 0 65.586764 29.375028 65.586764 65.583694L959.989639 766.575302C959.988616 802.825924 930.621774 832.16002 894.401852 832.16002zM277.541619 517.045155c34.568307 97.594759 128.936581 167.686117 240.256946 167.686117 111.314225 0 205.686592-70.097498 240.258992-167.694303 24.565489-13.493316 41.176818-39.260166 41.176818-68.829622 0-43.539632-36.015262-78.846766-80.416518-78.846766L718.817857 527.057183c2.205225 0 4.386914-0.091074 6.545066-0.265036-35.664268 77.614705-115.113761 131.667785-207.564359 131.667785-92.457762 0-171.903162-54.05308-207.575616-131.668809 2.159176 0.173962 4.343935 0.265036 6.54916 0.265036l0-157.696602c-44.426839 0-80.415494 35.307134-80.415494 78.849836C236.356614 477.78192 252.96692 503.552863 277.541619 517.045155zM691.841459 434.92688c0-94.336552-77.923744-170.810271-174.071547-170.810271-96.143711 0-174.070524 76.472696-174.070524 170.810271 0 94.345762 77.926814 170.809247 174.070524 170.809247C613.917716 605.736127 691.841459 529.273664 691.841459 434.92688zM209.550085 65.20328c0 99.329263 53.413514 172.446537 134.771473 213.523071 45.459355-41.514509 106.421798-66.927295 173.448354-66.927295 67.153446 0 128.219243 25.50386 173.702134 67.163679 82.21856-41.038672 136.632867-114.245997 136.632867-213.759455L209.550085 65.20328z"  horiz-adv-x="1024" />

    
    <glyph glyph-name="zaixiankefu2" unicode="&#58922;" d="M136.587636 281.6c8.331636 0 16.407273 1.024 24.32 2.443636-14.708364 42.216727-24.32 86.853818-24.32 134.074182s9.611636 91.857455 24.32 134.074182c-0.442182 0.069818-0.930909 0.046545-1.373091 0.139636 55.645091 160.186182 207.592727 275.386182 386.816 275.386182 179.2 0 331.147636-115.2 386.816-275.386182-0.442182-0.069818-0.930909-0.046545-1.349818-0.139636 14.708364-42.216727 24.32-86.853818 24.32-134.074182s-9.611636-91.857455-24.32-134.074182c7.912727-1.442909 15.988364-2.443636 24.32-2.443636 75.450182 0 136.587636 61.114182 136.587636 136.541091 0 57.413818-35.560727 106.356364-85.783273 126.533818C951.412364 747.077818 766.510545 896 546.373818 896 326.237091 896 141.335273 747.077818 85.783273 544.674909 35.560727 524.497455 0 475.554909 0 418.141091 0 342.737455 61.160727 281.6 136.587636 281.6L136.587636 281.6zM887.854545 213.341091c0 9.658182 1.349818 18.920727 2.141091 28.369455l0 176.453818L887.854545 418.164364c0 188.509091-152.878545 341.341091-341.480727 341.341091S204.893091 606.650182 204.893091 418.141091l0-176.453818c0.791273-9.425455 2.141091-18.711273 2.141091-28.369455 0-140.334545-84.852364-260.631273-205.963636-313.088C42.658909-117.783273 88.389818-128 136.587636-128c82.850909 0 157.789091 30.673455 216.901818 79.732364C402.106182-97.908364 464.942545-128 546.373818-128c82.385455 0 145.640727 30.324364 194.373818 80.244364C799.953455-97.117091 875.147636-128 958.301091-128c48.221091 0 93.928727 10.216727 135.517091 28.229818C972.706909-47.290182 887.854545 73.006545 887.854545 213.341091L887.854545 213.341091zM763.624727 142.708364c-22.690909-24.250182-51.153455-42.542545-83.130182-53.690182-5.957818 31.627636-32.442182 56.040727-65.815273 56.040727-37.725091 0-68.305455-30.557091-68.305455-68.282182 0-37.701818 30.580364-68.258909 68.305455-68.258909 27.787636 0 54.155636 4.980364 79.313455 12.753455-38.144-46.685091-86.318545-81.617455-147.595636-81.012364-217.693091 2.141091-275.688727 411.741091-275.688727 411.741091s251.508364 104.098909 280.343273 203.869091c0 0-28.392727-183.761455-77.474909-202.938182 0 0 190.231273 65.768727 209.431273 140.427636 0 0 12.334545-148.968727 138.263273-140.427636C821.224727 352.930909 806.423273 246.970182 763.624727 142.708364L763.624727 142.708364zM409.786182 349.858909c-37.725091 0-68.305455-30.557091-68.305455-68.258909l136.587636 0C478.068364 319.301818 447.511273 349.858909 409.786182 349.858909L409.786182 349.858909zM682.961455 349.858909c-37.725091 0-68.305455-30.557091-68.305455-68.258909l136.587636 0C751.266909 319.301818 720.686545 349.858909 682.961455 349.858909L682.961455 349.858909z"  horiz-adv-x="1094" />

    
    <glyph glyph-name="shichang" unicode="&#58966;" d="M512-42.666667 512-42.666667C747.641493-42.666667 938.666667 148.358485 938.666667 384 938.666667 619.641515 747.641493 810.666667 512 810.666667 276.358507 810.666667 85.333333 619.641515 85.333333 384 85.333333 148.358485 276.358507-42.666667 512-42.666667L512-42.666667ZM512-128 512-128C229.230208-128 0 101.230251 0 384 0 666.769749 229.230208 896 512 896 794.769792 896 1024 666.769749 1024 384 1024 101.230251 794.769792-128 512-128L512-128ZM256 341.333333C256 364.897451 274.351562 384 297.854167 384L555.479166 384C578.594585 384 597.333333 364.208299 597.333333 341.333333L597.333333 341.333333C597.333333 317.769216 578.981771 298.666667 555.479166 298.666667L297.854167 298.666667C274.738749 298.666667 256 318.458368 256 341.333333L256 341.333333ZM512 598.145792C512 621.261227 531.791666 640 554.666667 640L554.666667 640C578.230816 640 597.333333 621.648469 597.333333 598.145792L597.333333 340.520875C597.333333 317.40544 577.541667 298.666667 554.666667 298.666667L554.666667 298.666667C531.102518 298.666667 512 317.018197 512 340.520875L512 598.145792Z"  horiz-adv-x="1024" />

    
    <glyph glyph-name="fangdaj" unicode="&#59021;" d="M1001.828-93.103l-20.025-19.988c-11.107-11.069-27.42-12.675-36.563-3.538l-235.809 235.579c-73.573-59.635-167.575-94.893-270.216-94.131-238.22 1.792-432.722 197.050-434.563 436.129-1.792 239.030 189.843 431.378 428.018 429.593 211.48-1.61 388.544-155.699 426.856-357.585l-87.773-0.671c-36.066 154.347-174.336 270.439-338.449 271.695-190.556 1.44-343.835-152.428-342.396-343.693 1.476-191.271 157.084-347.465 347.642-348.888 173.887-1.305 316.724 126.707 339.256 294.456l87.101 0.671c-8.831-86.339-43.015-164.79-95.072-227.829l235.489-235.318c9.136-9.048 7.522-25.401-3.493-36.469z"  horiz-adv-x="1024" />

    
    <glyph glyph-name="21" unicode="&#58967;" d="M801.881157-71.411167l-656.389528 0c-22.163789 0-40.195467 19.518542-40.195467 43.51098L105.296161 795.901211c0 23.991414 18.031679 43.51098 40.195467 43.51098l656.389528 0c22.163789 0 40.195467-19.518542 40.195467-43.51098l0-371.767142c0-11.214413-9.091052-20.304442-20.305465-20.304442s-20.305465 9.090029-20.305465 20.304442l0 371.767142c0 1.427512-0.423649 2.39249-0.750083 2.901073L146.657174 798.802284c-0.327458-0.508583-0.751107-1.473561-0.751107-2.901073l0-823.802422c0-1.427512 0.423649-2.39249 0.751107-2.90005l655.223982 0c11.214413 0 20.305465-9.091052 20.305465-20.305465S813.095569-71.411167 801.881157-71.411167zM743.452419 405.418822 203.920366 405.418822c-11.167341 0-20.304442 9.137101-20.304442 20.304442l0 0c0 11.167341 9.137101 20.304442 20.304442 20.304442l539.532053 0c11.167341 0 20.305465-9.137101 20.305465-20.304442l0 0C763.756861 414.555923 754.61976 405.418822 743.452419 405.418822zM651.639341 37.673274c-5.887081 0-11.777231 2.24718-16.271592 6.741541-36.607756 36.607756-146.434094 146.428977-146.434094 146.428977-8.985652 8.982582-8.985652 23.554462 0 32.537044 8.987698 8.988722 23.554462 8.988722 32.543184 0l130.162502-107.144252 227.782843 204.767664c8.990768 8.988722 23.557532 8.988722 32.543184 0 8.985652-8.982582 8.985652-23.554462 0-32.537044L667.910932 44.413791C663.416572 39.919431 657.526421 37.673274 651.639341 37.673274z"  horiz-adv-x="1024" />

    
    <glyph glyph-name="duorenyonghu2" unicode="&#59355;" d="M522.88 297.6C593.28 343.04 640 421.76 640 512c0 141.44-114.56 256-256 256C242.56 768 128 653.44 128 512c0-90.24 46.72-168.96 117.12-214.4C101.76 250.24 0 130.56 0-32 0-49.92 14.08-64 32-64l704 0c17.92 0 32 14.08 32 32C768 130.56 666.24 250.24 522.88 297.6zM804.48 293.76C878.08 339.2 928 419.2 928 512c0 141.44-114.56 256-256 256C654.08 768 640 753.92 640 736 640 718.08 654.08 704 672 704c105.6 0 192-86.4 192-192 0-71.04-38.4-132.48-96-165.76-56.32-34.56-71.68-83.2 0-109.44 111.36-39.68 192-144 192-269.44 0-17.92 14.08-32 32-32 17.92 0 32 14.08 32 32C1024 115.2 933.12 241.28 804.48 293.76z"  horiz-adv-x="1024" />

    
    <glyph glyph-name="jifen" unicode="&#58951;" d="M672 531.2 576 531.2l38.4 38.4c12.8 12.8 12.8 25.6 0 38.4-12.8 12.8-25.6 12.8-38.4 0L512 537.6 441.6 608c-12.8 12.8-25.6 12.8-38.4 0-12.8-12.8-12.8-25.6 0-38.4L448 531.2 358.4 531.2c-38.4 0-64-32-64-64 0-32 19.2-57.6 51.2-64l0-211.2c0-12.8 12.8-25.6 25.6-25.6l300.8 0c12.8 0 25.6 12.8 25.6 25.6L697.6 396.8c25.6 6.4 51.2 32 51.2 64C742.4 499.2 710.4 531.2 672 531.2L672 531.2zM358.4 448C345.6 448 339.2 454.4 339.2 460.8c0 6.4 6.4 19.2 19.2 19.2l134.4 0L492.8 448 358.4 448 358.4 448zM640 211.2 390.4 211.2 390.4 396.8l102.4 0 0-108.8c0-12.8 12.8-25.6 25.6-25.6 12.8 0 25.6 12.8 25.6 25.6L544 396.8 640 396.8 640 211.2 640 211.2zM672 448 544 448 544 480l134.4 0c6.4 0 19.2-6.4 19.2-19.2C691.2 454.4 684.8 448 672 448L672 448zM512 896C230.4 896 0 665.6 0 384s230.4-512 512-512c281.6 0 512 230.4 512 512S793.6 896 512 896L512 896zM505.6-89.6c-262.4 0-473.6 211.2-473.6 473.6 0 262.4 211.2 473.6 473.6 473.6 262.4 0 473.6-211.2 473.6-473.6C979.2 121.6 768-89.6 505.6-89.6L505.6-89.6zM505.6-89.6"  horiz-adv-x="1024" />

    
    <glyph glyph-name="fangdajing" unicode="&#59022;" d="M34.6 487.4C34.6 281 202.5 113 409 113s374.4 168 374.4 374.4c0 206.5-168 374.4-374.4 374.4S34.6 693.9 34.6 487.4zM92.2 487.4C92.2 662.1 234.3 804.2 409 804.2c174.7 0 316.8-142.1 316.8-316.8 0-174.7-142.1-316.8-316.8-316.8S92.2 312.8 92.2 487.4zM688.2 162.5l-40.1-41.3 160.6-155.7c16.9-16.8 38.9-25.3 61.1-25.3s44.3 8.4 61.1 25.3c16.3 16.3 25.3 38.1 25.3 61.1s-9 44.8-25 60.8l-156 160.9-41.3-40.1L890.2 47c5.5-5.4 8.4-12.7 8.4-20.4 0-7.7-3-15-8.4-20.4-11.2-11.2-29.5-11.2-41 0.3L688.2 162.5zM246.2 324.6l40.7 40.7c-67.4 67.3-67.4 176.9 0 244.3l-40.7 40.8C156.4 560.5 156.4 414.4 246.2 324.6z"  horiz-adv-x="1024" />

    
    <glyph glyph-name="jianhao" unicode="&#59012;" d="M0 486.396111l1023.957021 0 0-204.7912-1023.957021 0 0 204.7912Z"  horiz-adv-x="1040" />

    
    <glyph glyph-name="meishi" unicode="&#58885;" d="M427.890759 640.494345c0 89.705931-60.221793 232.448-134.497103 232.448C219.118345 872.92469 158.896552 730.200276 158.896552 640.494345c0-89.705931 60.221793-162.427586 134.497103-162.427586C367.668966 478.066759 427.890759 550.788414 427.890759 640.494345zM276.497655 473.847172l-4.837517-553.984c0-9.198345 4.148966-16.754759 9.198345-16.754759l25.05269 0c5.067034 0 9.198345 7.556414 9.198345 16.754759l-4.819862 553.984c-5.526069-0.865103-11.140414-1.465379-16.913655-1.465379C287.638069 472.381793 282.023724 472.982069 276.497655 473.847172zM847.36-106.725517l-25.05269 0c-5.067034 0-9.198345 11.29931-9.198345 25.105655l5.455448 934.859034C818.546759 867.045517 822.660414 878.344828 827.745103 878.344828l14.212414 0c5.049379 0 9.198345-11.29931 9.198345-25.105655l5.420138-934.859034C856.576-95.426207 852.427034-106.725517 847.36-106.725517zM703.629241-106.725517l-25.070345 0c-5.067034 0-9.198345 11.29931-9.198345 25.105655l5.420138 934.859034C674.798345 867.045517 678.94731 878.344828 683.99669 878.344828l14.212414 0c5.031724 0 9.18069-11.29931 9.18069-25.105655l5.437793-934.859034C712.809931-95.426207 708.696276-106.725517 703.629241-106.725517z"  horiz-adv-x="1024" />

    
    <glyph glyph-name="shouji" unicode="&#58923;" d="M702.699388 835.054953 321.284238 835.054953c-57.463044 0-104.022314-46.591131-104.022314-104.018052l0-693.454702c0-57.426921 46.560293-104.019075 104.022314-104.019075l381.416174 0c57.463044 0 104.022314 46.592155 104.022314 104.019075L806.722726 731.036901C806.722726 788.462798 760.163456 835.054953 702.699388 835.054953zM477.317197 800.382269l69.349233 0c9.582632 0 17.336541-7.754614 17.336541-17.33583 0-9.582239-7.753909-17.336854-17.336541-17.336854l-69.349233 0c-9.581609 0-17.336541 7.754614-17.336541 17.336854C459.980656 792.627654 467.735588 800.382269 477.317197 800.382269zM511.992325-24.077116c-24.482581 0-44.324277 19.840884-44.324277 44.322461 0 24.480554 19.84272 44.322461 44.324277 44.322461 24.481557 0 44.324277-19.84293 44.324277-44.322461C556.317626-4.237255 536.473882-24.077116 511.992325-24.077116zM737.373493 124.263397c0-9.582239-7.753909-17.33583-17.336541-17.33583L303.946674 106.927567c-9.582632 0-17.337564 7.753591-17.337564 17.33583L286.60911 713.700047c0 9.582239 7.754932 17.33583 17.337564 17.33583l416.090278 0c9.582632 0 17.336541-7.754614 17.336541-17.33583L737.373493 124.263397z"  horiz-adv-x="1024" />

    
    <glyph glyph-name="jiahao1" unicode="&#59203;" d="M959.434495 473.487104 601.487104 473.487104 601.487104 831.434495 422.512896 831.434495 422.512896 473.487104 64.565505 473.487104 64.565505 294.512896 422.512896 294.512896 422.512896-63.434495 601.487104-63.434495 601.487104 294.512896 959.434495 294.512896Z"  horiz-adv-x="1024" />

    
    <glyph glyph-name="service_2" unicode="&#58925;" d="M371.284 197.085c-118.654-4.7-175.755-178.56-216.616-264.315h266.28l-25.253 263.193c-8.471 1.28-16.502 1.438-24.411 1.122zM420.668 483.848c-24.009 0-43.211-16.081-43.211-35.915 0-19.835 19.202-35.915 43.211-35.915 24.008 0 43.491 16.081 43.491 35.915 0.001 19.834-19.483 35.915-43.491 35.915zM583.41 637.891c62.852-84.265 135.244-118.97 135.244-118.97-8.488 145.871-75.023 196.553-212.967 197.254-165.021 0.842-247.147-125.844-211.004-257.3-0.001 0 286.429 118.864 288.727 179.016zM493.902 241.419c-13.066-1.192-24.165-10.399-23.57-19.36l1.965-29.462c0.597-8.944 13.029-15.783 26.094-14.59l42.089 3.928c13.066 1.192 24.447 10.417 23.85 19.361l-1.965 28.9c-0.597 8.962-13.030 16.064-26.094 14.872l-42.369-3.649zM765.513 355.899c51.383 13.205 89.509 12.381 89.509 117.568 0 50.663-30.287 94.067-73.234 112.236-31.638 119.811-130.142 241.621-278.065 244.954-4.717 0.105-9.4 0.123-14.030 0-143.294-3.682-241.483-114.48-252.53-242.99-45.543-16.853-79.828-61.642-78.285-114.2 3.455-118.024 51.681-119.9 115.884-121.215v228.4c1.35 97.645 97.012 205.953 228.961 205.953 131.158 0 203.708-102.083 235.695-192.765v-234.853c-6.454-15.117-23.727-32.11-55.277-62.572-41.159-39.721-100.451-60.326-100.451-60.326-6.892-1.455-11.75-10.663-9.821-18.519 1.929-7.857 10.328-12.574 16.835-9.54 0 0 62.554 20.413 109.43 65.658 46.402 44.805 65.219 81.773 65.378 82.211zM660.572 203.259c-10.592-0.386-21.465-2.929-32.829-7.857l-24.692-262.632h266.279c-39.598 82.792-106.36 274.346-208.758 270.488zM556.753 145.177h-89.227c-6.138 0-11.54-2.894-11.224-6.454l14.59-205.953h82.213l14.31 205.953c0.298 3.56-4.525 6.454-10.663 6.454zM646.824 447.932c0 19.835-19.484 35.915-43.492 35.915s-43.491-16.081-43.491-35.915c0-19.835 19.483-35.915 43.491-35.915 24.007 0 43.492 16.081 43.492 35.915z"  horiz-adv-x="1024" />

    
    </font>
</defs>
</svg>
